<?xml version="1.0" standalone="no"?>
<!DOCTYPE svg PUBLIC "-//W3C//DTD SVG 1.1//EN" "http://www.w3.org/Graphics/SVG/1.1/DTD/svg11.dtd" >
<svg xmlns="http://www.w3.org/2000/svg">
<metadata>
This is a custom SVG font generated by IcoMoon.
<iconset grid="26"></iconset>
</metadata>
<defs>
<font id="Davicons" horiz-adv-x="832" >
<font-face units-per-em="832" ascent="768" descent="-64" />
<missing-glyph horiz-adv-x="832" />
<glyph class="hidden" unicode="&#xf000;" d="M0,768L 832 -64L0 -64 z" horiz-adv-x="0" />
<glyph unicode="&#xe000;" d="M 656.3,409.231l-182.161,0 L 474.139,591.395 c0,17.121-13.884,31.005-31.005,31.005l-54.261,0 c-17.121,0-31.005-13.884-31.005-31.005
	l0-182.161 L 175.7,409.234 c-17.125,0-31.005-13.884-31.005-31.005l0-54.261 c0-17.121, 13.88-31.005, 31.005-31.005l 182.161,0 l0-182.161 
	c0-17.125, 13.884-31.005, 31.005-31.005l 54.261,0 c 17.121,0, 31.005,13.88, 31.005,31.005l0,182.161 l 182.161,0 c 17.121,0, 31.005,13.884, 31.005,31.005l0,54.261 
	C 687.304,395.347, 673.421,409.231, 656.3,409.231z" data-tags="davicon-plus" />
<glyph unicode="&#xe001;" d="M 656.3,409.231L 175.7,409.231 c-17.125,0-31.005-13.884-31.005-31.005l0-54.261 c0-17.121, 13.88-31.005, 31.005-31.005l 480.596,0 
	c 17.121,0, 31.005,13.884, 31.005,31.005l0,54.261 C 687.304,395.347, 673.421,409.231, 656.3,409.231z" data-tags="davicon-minus" />
<glyph unicode="&#xe002;" d="M 656.3,409.231L 175.7,409.231 c-17.125,0-31.005-13.884-31.005-31.005l0-54.261 c0-17.121, 13.88-31.005, 31.005-31.005l 480.596,0 
		c 17.121,0, 31.005,13.884, 31.005,31.005l0,54.261 C 687.304,395.347, 673.421,409.231, 656.3,409.231zM 338.487,525.505A77.513,77.513 180 1 1 493.513,525.505A77.513,77.513 180 1 1 338.487,525.505zM 338.487,176.687A77.513,77.513 180 1 1 493.513,176.687A77.513,77.513 180 1 1 338.487,176.687z" data-tags="davicon-divide" />
<glyph unicode="&#xe003;" d="M 495.029,352l 123.816,123.816c 11.644,11.641, 11.641,30.513,0,42.146l-36.879,36.879
	c-11.637,11.641-30.509,11.644-42.146,0L 416,431.029L 292.184,554.842c-11.637,11.644-30.513,11.641-42.15,0L 213.155,517.962
	c-11.637-11.637-11.641-30.509,0-42.146L 336.971,352l-123.816-123.816c-11.641-11.641-11.637-30.513,0-42.146l 36.879-36.879
	c 11.637-11.641, 30.509-11.644, 42.15,0L 416,272.971l 123.816-123.816c 11.641-11.644, 30.513-11.641, 42.146,0l 36.879,36.879
	c 11.641,11.637, 11.644,30.509,0,42.146L 495.029,352z" data-tags="davicon-times" />
<glyph unicode="&#xe004;" d="M 628.836,487.507L 203.164,487.507 c-15.168,0-27.463-12.296-27.463-27.463l0-48.061 c0-15.168, 12.296-27.467, 27.463-27.467l 425.673,0 
		c 15.164,0, 27.463,12.296, 27.463,27.467L 656.3,460.044 C 656.3,475.212, 644.001,487.507, 628.836,487.507zM 628.836,315.866L 203.164,315.866 c-15.168,0-27.463-12.296-27.463-27.467l0-48.061 c0-15.164, 12.296-27.463, 27.463-27.463l 425.673,0 
		c 15.164,0, 27.463,12.296, 27.463,27.463l0,48.061 C 656.3,303.567, 644.001,315.866, 628.836,315.866z" data-tags="davicon-equals" />
<glyph unicode="&#xe005;" d="M 658.662,539.891l-31.182,34.391c-9.843,10.849-27.347,11.011-39.108,0.351L 178.609,203.065
		c-11.757-10.653-13.301-28.089-3.465-38.948l 31.182-34.387c 9.843-10.856, 27.347-11.011, 39.111-0.351L 655.2,500.939
		C 666.953,511.599, 668.505,529.032, 658.662,539.891zM 267.687,385.157c 54.941,0, 99.478,44.541, 99.478,99.478c0,54.945-44.537,99.478-99.478,99.478s-99.478-44.534-99.478-99.478
		C 168.209,429.698, 212.746,385.157, 267.687,385.157z M 267.687,522.22c 20.757,0, 37.581-16.821, 37.581-37.585c0-20.753-16.824-37.577-37.581-37.577
		s-37.581,16.821-37.581,37.577C 230.106,505.395, 246.93,522.22, 267.687,522.22zM 566.122,318.843c-54.941,0-99.478-44.541-99.478-99.478c0-54.945, 44.541-99.478, 99.478-99.478s 99.478,44.534, 99.478,99.478
		C 665.6,274.302, 621.063,318.843, 566.122,318.843z M 566.122,181.78c-20.757,0-37.581,16.821-37.581,37.585c0,20.753, 16.821,37.577, 37.581,37.577
		s 37.581-16.821, 37.581-37.577C 603.703,198.605, 586.878,181.78, 566.122,181.78z" data-tags="davicon-percent" />
<glyph unicode="&#xe006;" d="M 610.030,378.758L 262.015,623.29c-14.784,14.784-53.57,10.085-53.588-22.109L 208,103.362
	c-0.018-29.341, 38.757-37.476, 53.559-22.681l 348.438,244.503C 624.799,339.987, 624.814,363.977, 610.030,378.758z" data-tags="davicon-play" />
<glyph unicode="&#xe007;" d="M 677.838,593.996c-0.022,31.316-38.804,35.888-53.588,21.505l-178.5-192.366l-0.152,170.857
	c-0.018,31.316-38.8,35.888-53.584,21.505l-220.704-237.851c-14.784-14.383-14.77-37.715, 0.033-52.112l 221.124-237.822
	c 14.802-14.394, 53.577-6.479, 53.559,22.062l-0.152,170.271l 178.829-192.333c 14.802-14.394, 53.584-6.479, 53.563,22.062L 677.838,593.996z" data-tags="davicon-rewind" />
<glyph unicode="&#xe008;" d="M 717.629,593.993c-0.022,31.316-38.804,35.888-53.588,21.505l-178.5-192.366l-0.152,170.857
	c-0.018,31.316-38.804,35.888-53.584,21.505L 220.661,387.957L 220.661,587.127 c0,19.979-16.199,36.174-36.174,36.174L 143.791,623.301 c-19.975,0-36.174-16.195-36.174-36.174l0-470.261 
	c0-19.979, 16.199-36.174, 36.174-36.174L 184.487,80.692 c 19.975,0, 36.174,16.195, 36.174,36.174l0,198.421 l 211.596-227.57c 14.802-14.394, 53.577-6.479, 53.559,22.062l-0.152,170.271
	l 178.829-192.333c 14.802-14.394, 53.584-6.479, 53.563,22.062L 717.629,593.993z" data-tags="davicon-fast-rewind" />
<glyph unicode="&#xe009;" d="M 685.496,623.301l-40.696,0 c-19.975,0-36.174-16.195-36.174-36.174l0-199.166 l-211.14,227.541
	c-14.784,14.383-53.57,9.81-53.588-21.505l-0.152-170.857L 165.25,615.502c-14.784,14.383-53.57,9.81-53.588-21.505L 111.235,109.776
	c-0.018-28.541, 38.757-36.452, 53.559-22.062l 178.829,192.333l-0.152-170.271c-0.018-28.541, 38.757-36.452, 53.559-22.062l 211.596,227.57l0-198.421 
	c0-19.979, 16.199-36.174, 36.174-36.174l 40.696,0 c 19.975,0, 36.174,16.195, 36.174,36.174l0,470.261 C 721.67,607.106, 705.471,623.301, 685.496,623.301z" data-tags="davicon-fast-forward" />
<glyph unicode="&#xe00a;" d="M 661.758,377.655l-220.708,237.851c-14.784,14.383-53.57,9.81-53.588-21.505l-0.152-170.857L 208.814,615.505
	c-14.784,14.383-53.57,9.81-53.588-21.505L 154.799,109.779c-0.018-28.541, 38.757-36.452, 53.559-22.062l 178.829,192.333l-0.152-170.271
	c-0.018-28.541, 38.757-36.452, 53.559-22.062l 221.128,237.822C 676.525,339.94, 676.539,363.272, 661.758,377.655z" data-tags="davicon-forward" />
<glyph unicode="&#xe00b;" d="M 602.625,578.087L 229.375,578.087 c-21.795,0-39.462-17.671-39.462-39.462l0-373.25 c0-21.791, 17.667-39.462, 39.462-39.462
	l 373.25,0 c 21.791,0, 39.462,17.671, 39.462,39.462L 642.087,538.625 C 642.087,560.416, 624.416,578.087, 602.625,578.087z" data-tags="davicon-stop" />
<glyph unicode="&#xe00c;" d="M 328.604,623.304L 279.118,623.304 C 254.827,623.304, 235.13,607.109, 235.13,587.13l0-470.261 c0-19.979, 19.697-36.174, 43.987-36.174l 49.486,0 
		c 24.291,0, 43.987,16.195, 43.987,36.174L 372.591,587.13 C 372.591,607.109, 352.895,623.304, 328.604,623.304zM 552.882,623.304l-49.486,0 C 479.105,623.304, 459.409,607.109, 459.409,587.13l0-470.261 c0-19.979, 19.697-36.174, 43.987-36.174l 49.486,0 
		c 24.291,0, 43.987,16.195, 43.987,36.174L 596.87,587.13 C 596.87,607.109, 577.173,623.304, 552.882,623.304z" data-tags="davicon-pause" />
<glyph unicode="&#xe00d;" d="M 682.066,285.357c-4.822,4.826-17.472,3.295-17.479-7.209l-0.033-35.57
	C 575.353,245.576, 513.67,295.413, 454.706,354.709c 58.963,59.293, 120.647,109.129, 209.848,112.132l 0.033-35.57
	c 0.007-10.505, 12.657-12.035, 17.479-7.209l 113.517,79.76c 4.829,4.829, 4.826,12.65-0.011,17.483l-113.655,79.749
	c-4.826,4.829-17.479,2.174-17.472-7.394l 0.033-36.355c-124.105-2.923-201.427-68.687-270.747-139.534
	C 322.852,490.17, 243.816,557.739, 115.76,558.904C 114.635,558.915, 68.054,558.918, 66.922,558.918c-14.47,0-36.174-16.199-36.174-36.174l0-18.087 c0-19.975, 16.199-36.174, 36.174-36.174
	c 0.901,0, 47.254-0.004, 48.155-0.014c 93.777-0.973, 157.234-52.532, 217.836-113.76c-60.41-61.029-123.65-112.461-216.931-113.749
	c-1.194-0.018-47.854-0.025-49.059-0.025c-19.975,0-36.174-16.199-36.174-36.174l0-18.087 c0-19.975, 21.704-36.174, 36.174-36.174c 0.98,0, 47.41,0.004, 48.383,0.011
	c 128.323,1.009, 207.461,68.654, 278.423,141.136c 69.324-70.847, 146.645-136.611, 270.747-139.53l-0.033-36.355
	c-0.007-9.568, 12.646-12.223, 17.472-7.394l 113.655,79.749c 4.836,4.833, 4.84,12.654, 0.011,17.483L 682.066,285.357z" data-tags="davicon-shuffle" />
<glyph unicode="&#xe00e;" d="M 746.597,224.324l-40.562,132.671c-3.089,6.103-10.519,8.523-16.622,5.422l-111.101-83.269
		c-6.092-3.086-7.495-15.942, 1.599-18.908l 31.659-10.313c-37.111-72.272-112.356-121.743-199.188-121.743
		c-100.516,0-185.76,66.195-213.82,157.487C 195.339,296.155, 189.689,306.783, 170.017,306.783c-17.284,0-39.708,0-50.416,0
		c-18.767,0-17.638-17.447-15.678-25.984C 136.227,140.281, 262.055,35.478, 412.383,35.478c 128.056,0, 238.245,76.099, 288.064,185.507l 33.866-11.033
		C 744.304,206.697, 749.686,218.243, 746.597,224.324zM 142.384,341.582l 111.101,83.269c 6.092,3.086, 7.495,15.942-1.599,18.908l-31.656,10.313
		c 37.107,72.272, 112.356,121.743, 199.188,121.743c 100.516,0, 185.76-66.195, 213.82-157.487c 3.223-10.48, 8.873-21.107, 28.545-21.107
		c 17.284,0, 39.708,0, 50.416,0c 18.767,0, 17.638,17.447, 15.678,25.984c-32.303,140.521-158.131,245.321-308.459,245.321
		c-128.056,0-238.245-76.099-288.060-185.507l-33.87,11.033c-9.991,3.256-15.374-8.291-12.285-14.372l 40.562-132.671
		C 128.851,340.905, 136.285,338.482, 142.384,341.582z" data-tags="davicon-repeat" />
<glyph unicode="&#xe00f;" d="M 173.407,257.702l 170.271,0.17l 143.090,0.137l 170.857,0.17c 31.316,0.022, 35.888,43.304, 21.505,59.803
		l-237.851,246.308c-14.383,16.506-37.715,16.484-52.112-0.040l-237.822-246.778C 136.951,300.955, 144.866,257.68, 173.407,257.702zM 654.748,212.73L 184.487,212.73 c-19.975,0-36.174-16.199-36.174-36.174l0-18.087 c0-19.975, 16.199-36.174, 36.174-36.174l 470.261,0 c 19.975,0, 36.174,16.199, 36.174,36.174l0,18.087 
		C 690.922,196.532, 674.723,212.73, 654.748,212.73z" data-tags="davicon-eject" />
<glyph unicode="&#xe010;" d="M 502.163,426.243c 19.158-19.161, 50.227-19.161, 69.385,0l 99.511,99.507l 34.495-34.434
		c 10.082-10.064, 23.679,0.6, 23.676,9.854l 32.372,185.355c0,9.264-7.502,16.763-16.774,16.756l-185.482-32.513
		c-9.257,0-18.85-14.679-9.666-23.849l 34.571-34.51L 484.814,512.974c-19.154-19.161-19.154-50.227,0-69.389L 502.163,426.243zM 729.342,208.654c0,9.257-14.683,18.847-23.853,9.662l-34.503-34.568L 571.548,283.186
		c-19.154,19.154-50.22,19.154-69.385,0l-17.345-17.349c-19.154-19.158-19.154-50.227,0-69.385l 99.511-99.511l-34.438-34.499
		c-10.064-10.078, 0.6-23.676, 9.85-23.672l 185.362-32.372c 9.257,0, 16.759,7.502, 16.752,16.774L 729.342,208.654zM 324.408,283.183c-19.154,19.161-50.227,19.161-69.382,0l-99.514-99.511l-34.495,34.438
		c-10.082,10.064-23.679-0.6-23.676-9.854l-32.372-185.355c0-9.264, 7.502-16.763, 16.774-16.756l 185.482,32.509c 9.261,0, 18.85,14.683, 9.666,23.853
		l-34.571,34.51L 341.757,196.452c 19.158,19.161, 19.158,50.227,0,69.389L 324.408,283.183zM 242.246,612.481l 34.438,34.499c 10.060,10.082-0.604,23.679-9.854,23.676l-185.362,32.372
		c-9.257,0-16.759-7.502-16.749-16.774l 32.513-185.482c0-9.257, 14.679-18.85, 23.849-9.666l 34.51,34.568L 255.026,426.24
		c 19.154-19.154, 50.22-19.154, 69.389,0l 17.345,17.349c 19.154,19.158, 19.154,50.227,0,69.385L 242.246,612.481z" data-tags="davicon-full-screen" />
<glyph unicode="&#xe011;" d="M 600.512,689.228c-48.039,26.338-102.314,42.7-160.051,46.324C 432.369,736.058, 424.219,736.348, 416,736.348
	c-31.276,0-61.677-3.766-90.789-10.816c-27.63-6.692-54.087-16.365-79.026-28.668C 119.099,634.16, 31.652,503.297, 31.652,352
	c0-212.265, 172.087-384.348, 384.348-384.348c 212.265,0, 384.348,172.087, 384.348,384.348C 800.348,497.39, 719.6,623.927, 600.512,689.228z
	 M 311.667,703.158l 66.954-246.858l-15.624-7.607L 238.448,673.648C 261.961,685.704, 293.309,699.27, 311.667,703.158z M 416,261.565
	c-49.945,0-90.435,40.489-90.435,90.435c0,28.849, 13.522,54.518, 34.561,71.078c 8.577,6.75, 18.394,12.003, 29.069,15.312
	c 6.428,1.993, 13.175,3.259, 20.127,3.769C 411.533,442.326, 413.754,442.435, 416,442.435c 20.464,0, 39.336-6.808, 54.489-18.268
	C 492.323,407.657, 506.435,381.478, 506.435,352C 506.435,302.055, 465.945,261.565, 416,261.565z M 462.954,449.879c-10.563,5.090-21.864,8.403-33.58,9.836
	l 27.203,256.303c 41.929-4.587, 82.129-16.217, 119.909-34.702L 462.954,449.879z" data-tags="davicon-disc" />
<glyph unicode="&#xe012;" d="M 816.55,416.527c-4.153,34.293-12.929,68.13-26.309,100.516c-1.234,2.988-5.415,8.139-12.777,4.916
		c-28.349-12.408-56.471-25.318-84.708-37.975c-6.045-3.115-7.408-8.993-5.82-13.2c 8.085-21.451, 14.224-43.43, 17.117-65.873
		c 1.342-8.146, 8.533-9.85, 12.227-9.481c 30.498,3.039, 60.971,6.298, 91.491,9.116C 816.572,405.357, 816.991,412.866, 816.55,416.527zM 800.666,310.787c-28.093,4.692-56.218,9.232-84.459,12.907c-9.007,1.172-14.886-5.158-16.636-13.576
		c-6.985-30.976-19.436-60.968-37.4-88.413c-2.995-4.58-4.109-16.817, 0.68-20.807c 22.659-18.865, 47.391-35.121, 71.78-51.696
		c 6.33-4.301, 15.421,0.557, 18.076,4.449c 29.63,43.398, 49.374,91.524, 59.242,141.223C 812.864,299.472, 812.028,308.892, 800.666,310.787zM 581.51,598.435c 12.842-8.259, 25.137-17.714, 36.735-28.36c 4.699-4.044, 10.418-1.328, 12.581,0.89
		c 21.433,21.979, 42.866,43.959, 64.292,65.938c 2.72,2.789, 6.352,10.219, 0.004,16.101c-16.752,15.425-34.539,29.091-53.132,40.996
		c-2.677,1.715-8.649,3.162-12.672-2.5c-16.604-27.308-33.208-54.612-49.811-81.919C 578.056,607.185, 576.522,601.3, 581.51,598.435zM 633.257,165.921c-7.445,6.414-16.973,2.322-20.858-1.042c-106.579-92.319-267.958-87.906-369.22,13.355
		C 142.051,279.363, 137.512,440.449, 229.451,547.032c 3.476,4.030, 5.003,17.942-1.346,24.041c-18.857,18.112-35.704,38.348-55.469,55.469
		c-8.269,7.162-20.496,3.762-24.41-0.619C 13.355,475.009, 18.344,243.2, 163.242,98.301c 145.021-145.021, 377.095-149.894, 527.998-14.679
		c 4.25,3.809, 10.237,14.249, 1.874,22.435C 672.943,125.794, 654.632,147.498, 633.257,165.921zM 410.943,646.647c 0.159-2.113, 1.219-6.16, 7.625-5.813c 6.772,0.409, 13.554,0.568, 20.337,0.474
		c 0.481-0.007, 6.862,0.083, 7.047,5.372c 1.165,33.577, 3.339,67.113, 5.006,100.672c 0.098,2.011-0.517,7.043-6.468,6.931
		c-11.659,0.282-23.332,0.040-34.973-0.731c-5.574-0.322-6.276-5.006-6.106-7.264C 405.926,713.074, 408.429,679.862, 410.943,646.647z" data-tags="davicon-loading" />
<glyph unicode="&#xe013;" d="M 677.002,377.749l-230.113,221.992c-11.333,13.421-41.068,9.159-41.083-20.073l0-109.517 L 179.061,470.151 
	c-19.979,0-36.174-16.347-36.174-36.503l0-155.121 c0-20.16, 16.195-36.503, 36.174-36.503l 226.745,0 l0-114.295 c-0.014-26.631, 29.391-34.022, 40.735-20.587
	l 230.435,221.967C 688.324,342.551, 688.335,364.328, 677.002,377.749z" data-tags="davicon-right" />
<glyph unicode="&#xe014;" d="M 657.385,387.411l-217.21,227.433c-13.153,11.199-34.463,11.214-47.594,0.025l-217.239-227.114
	c-13.131-11.189-8.96-40.533, 19.646-40.547l 108.384,0 l0-230.384 c0-19.979, 16.137-36.178, 36.044-36.178l 153.182,0 c 19.903,0, 36.044,16.199, 36.044,36.178
	l0,230.384 l 108.601,0 C 663.303,347.189, 670.531,376.211, 657.385,387.411z" data-tags="davicon-up" />
<glyph unicode="&#xe015;" d="M 654.831,465.586l-234.718,0 L 420.113,579.881 c 0.018,26.635-29.319,34.022-40.638,20.587L 149.579,378.501
	c-11.319-13.439-11.333-35.215-0.025-48.636l 229.574-221.992c 11.312-13.421, 40.974-9.156, 40.989,20.077l0,109.517 l 234.718,0 
	c 19.932,0, 36.091,16.343, 36.091,36.499L 690.925,429.090 C 690.922,449.246, 674.763,465.586, 654.831,465.586z" data-tags="davicon-left" />
<glyph unicode="&#xe016;" d="M 635.214,357.415l-106.344,0 L 528.87,589.040 c0,19.671-16.108,35.617-35.975,35.617L 339.988,624.657 c-19.87,0-35.979-15.945-35.979-35.617
	l0-231.625 L 192.963,357.415 c-26.063,0.018-33.294-28.936-20.145-40.106l 217.21-226.876c 13.153-11.171, 34.459-11.185, 47.594-0.025l 217.239,226.554
	C 667.991,328.125, 663.82,357.401, 635.214,357.415z" data-tags="davicon-down" />
<glyph unicode="&#xe017;" d="M 639.204,469.055c 1.389,17.523-22.58,35.664-43.040,15.070l-76.62-77.199L 353.477,574.253
	c-14.101,14.209-36.966,14.209-51.070,0l-108.522-109.343c-14.101-14.209-14.101-37.248,0-51.457l 166.067-167.33l-79.959-80.563
	c-18.644-18.763-3.057-44.881, 14.35-43.485l 317.947-7.434c 17.411,1.4, 32.654,16.741, 34.043,34.264L 639.204,469.055z" data-tags="davicon-bottom-right" />
<glyph unicode="&#xe018;" d="M 615.919,585.926l-320.136-7.133c-17.523,1.389-35.664-22.583-15.070-43.040l 77.195-76.62l-167.326-166.067
	c-14.209-14.097-14.209-36.97,0-51.067l 109.347-108.525c 14.205-14.097, 37.245-14.097, 51.454,0l 167.326,166.071l 80.563-79.959
	c 18.763-18.644, 44.881-3.057, 43.485,14.35l 7.434,317.947C 648.786,569.289, 633.441,584.537, 615.919,585.926z" data-tags="davicon-top-right" />
<glyph unicode="&#xe019;" d="M 632.269,292.338l-166.071,167.326l 79.959,80.563c 18.644,18.763, 3.060,44.881-14.35,43.485l-317.943,7.434
	c-17.411-1.4-32.658-16.745-34.043-34.264l 7.13-320.139c-1.385-17.526, 22.587-35.667, 43.043-15.074l 76.616,77.195l 166.067-167.326
	c 14.101-14.205, 36.973-14.205, 51.070,0l 108.522,109.347C 646.37,255.090, 646.37,278.133, 632.269,292.338z" data-tags="davicon-top-left" />
<glyph unicode="&#xe01a;" d="M 637.941,462.848L 528.566,571.395c-14.213,14.101-37.259,14.101-51.472,0l-167.373-166.114L 230.29,484.122
	c-18.63,18.514-44.722,2.883-43.391-14.459L 178.337,152.754c 1.335-17.345, 16.564-32.484, 34.029-33.808l 319.097,8.251
	c 17.458-1.32, 35.628,22.638, 15.171,42.953l-76.067,75.499l 167.373,166.114C 652.151,425.871, 652.151,448.74, 637.941,462.848z" data-tags="davicon-bottom-left" />
<glyph unicode="&#xe01b;" d="M 712.286,405.451l-1.44,1.682L 480.679,626.578c-12.097,12.896-29.373,20.239-47.851,20.239
	c-38.5,0-67.548-30.169-67.569-70.195l0-64.831 L 173.747,511.791 c-43.803,0-79.442-35.534-79.442-79.214l0-153.034 
	c0-43.676, 35.639-79.214, 79.442-79.214l 191.512,0 l0-69.519 c-0.014-20.2, 7.806-38.565, 22.019-51.718c 12.744-11.793, 29.344-18.29, 46.751-18.293
	c 0.004,0, 0.007,0, 0.007,0c 17.855,0, 34.546,7.065, 46.245,19.48l 230.533,219.453l 1.447,1.697
	C 737.192,330.603, 737.203,376.298, 712.286,405.451z M 679.277,329.449l-230.026-218.972c-11.33-13.254-40.678-5.961-40.659,20.308l0,112.754 
	L 173.747,243.54 c-19.946,0-36.109,16.119-36.109,36.004L 137.638,432.574 c0,19.885, 16.166,36.008, 36.109,36.008l 234.845,0 L 408.592,576.622 
	c 0.014,28.838, 29.692,33.045, 41.010,19.805l 229.704-218.997C 690.621,364.187, 690.607,342.707, 679.277,329.449z" data-tags="davicon-right-outer" />
<glyph unicode="&#xe01c;" d="M 688.874,419.555l-219.453,230.486l-1.697,1.447C 453.498,663.638, 435.020,670.33, 415.685,670.33
	c-19.32,0-37.776-6.685-51.989-18.821l-1.675-1.436L 142.587,419.96c-18.901-17.711-25.38-45.995-16.083-71.328
	c 9.973-27.17, 35.27-44.056, 66.035-44.071l 64.827,0 l0-191.472 C 257.363,69.301, 292.9,33.67, 336.577,33.67l 153.030,0 
	c 43.676,0, 79.21,35.631, 79.21,79.423l0,191.472 c0,0, 69.562,0, 69.57,0c 29.876,0, 55.672,17.656, 65.71,44.986
	C 713.292,374.569, 707.149,402.303, 688.874,419.555z M 638.361,347.883l-112.75,0 l0-234.79 c0-19.939-16.119-36.102-36.004-36.102L 336.577,76.991 
	c-19.878,0-36.004,16.166-36.004,36.102l0,234.79 L 192.539,347.883 c-28.838,0.014-33.045,29.688-19.802,41l 218.986,229.65
	c 13.24,11.312, 34.727,11.297, 47.981-0.025l 218.964-229.972C 671.92,377.213, 664.631,347.865, 638.361,347.883z" data-tags="davicon-up-outer" />
<glyph unicode="&#xe01d;" d="M 657.099,507.291l-191.512,0 L 465.587,576.806 c 0.014,20.2-7.806,38.569-22.019,51.721
	c-12.744,11.796-29.352,18.293-46.758,18.293c-17.859,0-34.542-7.065-46.252-19.48L 120.032,407.885l-1.443-1.697
	c-24.935-29.174-24.942-74.876-0.022-104.029l 1.436-1.678l 230.164-219.442c 12.104-12.9, 29.373-20.243, 47.851-20.243
	c 38.504,0, 67.551,30.169, 67.573,70.195l0,64.831 l 191.512,0 c 43.803,0, 79.442,35.534, 79.442,79.214L 736.544,428.074 
	C 736.541,471.75, 700.906,507.291, 657.099,507.291z M 693.212,275.044c0-19.885-16.173-36.008-36.109-36.008l-234.845,0 l0-108.037 
	c-0.014-28.838-29.699-33.045-41.010-19.805l-229.704,218.997c-11.312,13.24-11.297,34.723, 0.029,47.981l 230.023,218.972
	c 11.326,13.254, 40.678,5.961, 40.663-20.308l0-112.75 l 234.845,0 c 19.939,0, 36.109-16.123, 36.109-36.008L 693.212,275.044 z" data-tags="davicon-left-outer" />
<glyph unicode="&#xe01e;" d="M 703.203,356.883c-10.053,27.065-35.411,43.897-66.202,43.912l-63.612,0 l0,191.469 
	c0,43.792-35.754,79.423-79.702,79.423L 339.713,671.687 c-43.948,0-79.702-35.631-79.702-79.423l0-191.469 L 191.635,400.795 c-29.901,0-55.758-17.591-65.873-44.823
	c-9.293-25.003-3.201-52.763, 15.106-70.058l 219.221-230.493l 1.704-1.451c 14.285-12.22, 32.864-18.944, 52.304-18.944
	c 19.425,0, 37.983,6.717, 52.25,18.923l 1.686,1.44l 219.203,230.113C 706.162,303.263, 712.597,331.569, 703.203,356.883z M 656.784,316.47
	l-218.758-229.646c-13.222-11.315-34.687-11.301-47.927,0.022l-218.729,229.972c-13.236,11.326-5.954,40.67, 20.286,40.652l 111.828,0 L 303.485,592.26 
	c0,19.939, 16.217,36.102, 36.228,36.102l 153.971,0 c 20.004,0, 36.228-16.166, 36.228-36.102l0-234.79 l 107.089,0 
	C 665.806,357.455, 670.010,327.782, 656.784,316.47z" data-tags="davicon-down-outer" />
<glyph unicode="&#xe01f;" d="M 687.76,468.303c 0.593,17.819-6.417,35.353-19.487,48.509c-27.232,27.405-69.179,26.544-97.59-2.015
	l-45.988-46.281l-135.46,136.332c-30.983,31.178-81.399,31.178-112.381,0L 168.303,495.6c-30.983-31.178-30.983-81.916,0-113.098
	l 135.46-136.329l-49.312-49.627c-14.339-14.412-21.831-33.088-21.111-52.593c 0.655-17.494, 7.788-33.953, 20.102-46.346c0,0,0,0, 0.004-0.004
	c 12.628-12.712, 29.438-19.541, 46.527-19.013l 318.725-7.445l 2.225,0.181c 38.33,3.086, 70.745,35.696, 73.802,74.243l 0.181,2.217L 687.76,468.303
	z M 617.471,114.819l-318.027,7.427c-17.411-1.4-33.001,24.7-14.357,43.445l 79.973,80.491L 198.957,413.351c-14.108,14.191-14.108,37.212,0,51.407
	l 108.547,109.245c 14.104,14.195, 36.981,14.195, 51.085,0l 166.111-167.174l 76.638,77.123c 20.467,20.576, 44.447,2.453, 43.054-15.052l 7.133-319.85
	C 650.136,131.549, 634.888,116.218, 617.471,114.819z" data-tags="davicon-bottom-right-outer" />
<glyph unicode="&#xe020;" d="M 698.594,558.987c-1.501,18.687-9.93,36.536-23.734,50.249c-13.786,13.699-31.728,22.070-50.517,23.56l-2.221,0.177
	l-320.49-7.148c-26.103,0.875-50.871-14.538-62.266-39.057c-12.227-26.298-6.193-56.182, 15.757-78.016l 46.285-45.988l-136.332-135.464
	c-31.182-30.983-31.182-81.399,0-112.381l 109.245-108.551c 31.178-30.983, 81.919-30.983, 113.101,0l 136.325,135.464l 49.663-49.352
	c 21.332-21.191, 52.322-26.993, 78.942-14.781c 24.37,11.181, 39.733,35.157, 38.97,60.327l 7.445,318.736L 698.594,558.987z M 647.683,237.506
	c 1.407-17.414-24.692-33.009-43.445-14.354l-80.487,79.973l-167.171-166.111c-14.195-14.108-37.219-14.104-51.41,0l-109.238,108.547
	c-14.202,14.104-14.202,36.981,0,51.085l 167.171,166.114L 285.973,539.399c-20.572,20.46-2.445,44.44, 15.059,43.051l 319.846,7.137
	c 17.508-1.389, 32.831-16.64, 34.239-34.054L 647.683,237.506z" data-tags="davicon-top-right-outer" />
<glyph unicode="&#xe021;" d="M 660.915,323.296l-135.464,136.329l 49.309,49.627c 14.339,14.412, 21.838,33.085, 21.115,52.593
	c-0.648,17.494-7.781,33.953-20.098,46.346c-12.628,12.712-29.449,19.545-46.531,19.017l-318.725,7.441l-2.225-0.177
	c-38.333-3.082-70.756-35.7-73.806-74.251l-0.177-2.217l 7.148-320.497c-0.593-17.819, 6.417-35.356, 19.491-48.513
	c 27.235-27.405, 69.179-26.548, 97.586,2.019l 45.984,46.281L 439.983,100.953c 30.983-31.182, 81.399-31.182, 112.381,0l 108.551,109.242
	C 691.898,241.377, 691.898,292.114, 660.915,323.296z M 630.265,241.040l-108.554-109.242c-14.101-14.198-36.977-14.195-51.078,0
	l-166.121,167.178l-76.638-77.126c-20.46-20.576-44.436-2.453-43.054,15.056l-7.126,319.843c 1.385,17.512, 16.633,32.839, 34.047,34.239
	l 318.034-7.43c 17.411,1.4, 33.001-24.7, 14.354-43.441l-79.981-80.491l 166.118-167.174C 644.37,278.256, 644.37,255.238, 630.265,241.040z
	" data-tags="davicon-top-left-outer" />
<glyph unicode="&#xe022;" d="M 666.497,493.556l-109.267,108.572c-31.189,30.99-81.934,30.99-113.123,0L 307.746,466.632L 259.222,514.851
	c-21.216,21.086-52.094,26.874-78.664,14.734c-24.399-11.138-39.849-35.078-39.169-60.23l-8.58-317.687l 0.174-2.225
	c 1.432-18.724, 9.828-36.579, 23.625-50.289c 13.789-13.699, 31.739-22.034, 50.56-23.452l 2.225-0.17l 319.43,8.269
	c 26.089-0.785, 50.81,14.705, 62.165,39.249c 12.147,26.244, 6.139,56.030-15.703,77.756l-45.141,44.852l 136.358,135.493
	C 697.683,412.139, 697.683,462.562, 666.497,493.556z M 635.644,411.803l-167.21-166.15l 75.998-75.513
	c 20.427-20.323, 2.283-44.284-15.16-42.96l-318.79-8.255c-17.439,1.317-32.658,16.466-33.993,33.815l 8.559,316.974
	c-1.335,17.349, 24.732,32.98, 43.344,14.462l 79.358-78.856l 167.21,166.15c 14.202,14.108, 37.219,14.108, 51.425,0l 109.263-108.572
	C 649.839,448.794, 649.846,425.914, 635.644,411.803z" data-tags="davicon-bottom-left-outer" />
<glyph unicode="&#xe023;" d="M 770.62,527.035l-192.908,138.745c-9.507,8.385-34.434,5.723-34.441-12.549L 543.271,579.896 L 135.652,579.896 c-19.979,0-36.174-16.199-36.174-36.174
		l0-63.304 c0-19.975, 16.195-36.174, 36.174-36.174l 407.619,0 l0-73.473 c-0.014-16.647, 24.634-21.263, 34.145-12.867l 193.183,138.731
		C 780.109,505.034, 780.123,518.646, 770.62,527.035zM 696.348,263.374L 288.729,263.374 l0,73.473 c 0.014,16.647-24.634,21.263-34.145,12.867l-193.183-138.731
		c-9.51-8.396-9.525-22.012-0.022-30.397l 192.908-138.745c 9.507-8.385, 34.434-5.723, 34.441,12.549L 288.729,127.722 L 696.348,127.722 c 19.979,0, 36.174,16.199, 36.174,36.174l0,63.304 
		C 732.522,247.175, 716.327,263.374, 696.348,263.374z" data-tags="davicon-both-directions" />
<glyph unicode="&#xe024;" d="M 409.239,264.709l-111.097,85.852l 108.041,89.968c 15.432,12.853, 17.458,35.696, 4.522,51.031l-11.709,13.884
		c-12.932,15.331-35.928,17.342-51.356,4.489L 193.965,381.966c-9.991-8.32-14.321-20.825-12.657-32.774c-1.751-12.422, 3.013-25.398, 13.692-33.653
		l 158.283-122.315c 15.895-12.281, 38.8-9.434, 51.164,6.356l 11.192,14.292C 427.995,229.674, 425.134,252.431, 409.239,264.709zM 637.106,264.709l-111.101,85.852l 108.041,89.968c 15.432,12.853, 17.458,35.696, 4.525,51.031l-11.709,13.884
		c-12.932,15.331-35.928,17.342-51.356,4.489l-153.674-127.969c-9.988-8.32-14.321-20.822-12.654-32.77c-1.754-12.422, 3.010-25.401, 13.692-33.656
		l 158.283-122.315c 15.891-12.281, 38.8-9.434, 51.161,6.356l 11.196,14.292C 655.866,229.674, 653.004,252.431, 637.106,264.709z" data-tags="davicon-chevron-left" />
<glyph unicode="&#xe025;" d="M 650.798,354.803c 1.751,12.422-3.013,25.401-13.692,33.653L 478.823,510.767
		c-15.895,12.285-38.804,9.438-51.161-6.352l-11.196-14.296c-12.361-15.794-9.496-38.547, 6.399-50.832l 111.101-85.852l-108.041-89.968
		c-15.432-12.853-17.461-35.696-4.525-51.031l 11.709-13.884c 12.932-15.331, 35.928-17.338, 51.356-4.486l 153.674,127.965
		C 648.135,330.35, 652.465,342.859, 650.798,354.803zM 422.931,354.803c 1.751,12.419-3.010,25.398-13.692,33.653L 250.96,510.767
		c-15.895,12.285-38.804,9.438-51.164-6.352l-11.192-14.296c-12.361-15.794-9.496-38.547, 6.396-50.832l 111.097-85.852l-108.041-89.968
		c-15.432-12.853-17.458-35.696-4.522-51.031l 11.709-13.884c 12.936-15.331, 35.928-17.338, 51.356-4.486l 153.678,127.965
		C 420.269,330.35, 424.602,342.859, 422.931,354.803z" data-tags="davicon-chevron-right" />
<glyph unicode="&#xe026;" d="M 605.913,399.026l-379.826,0 c-19.979,0-36.174-16.199-36.174-36.174l0-18.087 c0-19.975, 16.195-36.174, 36.174-36.174l 379.826,0 c 19.979,0, 36.174,16.199, 36.174,36.174l0,18.087 
	C 642.087,382.827, 625.892,399.026, 605.913,399.026z" data-tags="davicon-hyphen" />
<glyph unicode="&#xe027;" d="M 696.348,109.635l-560.696,0 c-19.979,0-36.174-16.199-36.174-36.174l0-18.087 c0-19.975, 16.195-36.174, 36.174-36.174l 560.696,0 c 19.979,0, 36.174,16.199, 36.174,36.174l0,18.087 
	C 732.522,93.436, 716.327,109.635, 696.348,109.635z" data-tags="davicon-underscore" />
<glyph unicode="&#xe028;" d="M 588.51,558.213l-5.614,17.233c-6.197,19.038-26.682,29.46-45.753,23.267l-78.714-25.524L 458.428,655.796 
	c0,20.011-16.257,36.239-36.311,36.239l-18.152,0 c-20.051,0-36.311-16.224-36.311-36.239l0-82.61 l-78.718,25.528
	c-19.067,6.189-39.556-4.232-45.749-23.263l-5.611-17.237c-6.197-19.035, 4.24-39.477, 23.31-45.666l 78.714-25.528L 290.954,420.191
	c-11.785-16.188-8.19-38.854, 8.031-50.611l 14.69-10.653c 16.22-11.764, 38.927-8.175, 50.716,8.020l 48.65,66.831l 48.654-66.835
	c 11.782-16.191, 34.492-19.78, 50.712-8.020l 14.69,10.653c 16.224,11.76, 19.82,34.427, 8.034,50.618l-48.647,66.831l 78.718,25.528
	C 584.267,518.736, 594.703,539.182, 588.51,558.213z" data-tags="davicon-asterisk" />
<glyph unicode="&#xe029;" d="M 276.166,0.324A45.217,45.384 91.175 1 1 278.022,90.74000000000001A45.217,45.384 91.175 1 1 276.166,0.3229999999999791zM 412.267-2.457A45.217,45.384 91.175 1 1 414.123,87.95899999999995A45.217,45.384 91.175 1 1 412.267-2.45799999999997zM 548.382-5.254A45.217,45.384 91.175 1 1 550.234,85.16300000000001A45.217,45.384 91.175 1 1 548.382-5.253000000000043z" data-tags="davicon-ellipses" />
<glyph unicode="&#xe02a;" d="M 325.565,352A90.435,90.435 180 1 1 506.435,352A90.435,90.435 180 1 1 325.565,352z" data-tags="davicon-bullet" />
<glyph unicode="&#xe02b;" d="M 739.601,283.953l-77.076-0.047L 662.525,501.174 l0,17.982 c0,19.859-16.228,35.964-36.243,35.964l-18.12,0 
		c-0.213,0-0.412-0.029-0.626-0.033l-306.878-0.514l 90.601-89.368l 180.656,0 l0-181.354 l-75.86-0.043c-15.754-0.007-18.051-12.589-10.816-17.382
		l 119.624-112.859c 7.238-4.804, 18.97-4.797, 26.215,0.007l 119.605,113C 757.934,271.379, 753.951,283.957, 739.601,283.953zM 437.118,239.886L 256.459,239.886 L 256.459,421.24 l 75.86,0.043c 15.757,0.007, 18.051,12.589, 10.816,17.382L 223.515,551.521
		c-7.242,4.804-18.97,4.797-26.219-0.007L 77.694,438.514c-7.246-4.797-3.259-17.378, 11.087-17.371l 77.076,0.043l0-217.268 l0-17.982 
		c0-19.859, 16.228-35.964, 36.243-35.964l 18.123,0 c 0.213,0, 0.416,0.029, 0.626,0.033l 306.878,0.514L 437.118,239.886z" data-tags="davicon-retweet" />
<glyph unicode="&#xe02c;" d="M 416,608.835C 216.215,608.835, 54.261,507.244, 54.261,381.923c0-62.14, 39.835-118.437, 104.344-159.415
	c-25.466-48.368-78.66-105.939-51.696-111.835c 33.302-7.278, 127.716,24.855, 176.33,60.11c 41.104-10.176, 85.891-15.768, 132.762-15.768
	c 199.785,0, 361.739,101.594, 361.739,226.912C 777.739,507.244, 615.785,608.835, 416,608.835z" data-tags="davicon-speech" />
<glyph unicode="&#xe02d;" d="M 795.826,299.971c0,95.926-124.829,173.689-278.81,173.689S 238.205,395.897, 238.205,299.971
		s 124.829-173.685, 278.81-173.685c 36.127,0, 70.644,4.276, 102.322,12.068c 37.473-26.986, 110.247-51.584, 135.909-46.013
		c 20.782,4.515-20.218,48.582-39.846,85.606C 765.122,209.312, 795.826,252.41, 795.826,299.971zM 187.562,305.379c0,125.701, 144.714,224.17, 329.454,224.17c 52.13,0, 101.070-7.846, 144.471-21.932
		c 25.097-8.146, 38.286,9.42, 16.492,26.555C 611.719,586.269, 509.274,619.687, 394.296,619.687C 194.511,619.687, 32.557,518.794, 32.557,394.338
		c0-56.413, 32.77-108.685, 88.272-147.499c 11.207-7.839, 9.836-22.019, 6.327-27.706c-26.921-43.647-65.808-89.002-41.951-94.179
		c 26.233-5.694, 88.981,15.88, 140.206,38.171c 12.791,5.567, 12.791,22.091, 0.21,36.036C 198.971,228.698, 187.562,266.702, 187.562,305.379z" data-tags="davicon-conversation" />
<glyph unicode="&#xe02e;" d="M 280.348,511.581A135.652,135.236 180 1 1 551.652,511.581A135.652,135.236 180 1 1 280.348,511.581zM 557.429,369.389c-11.503,9.365-25.55,3.632-30.99-0.561c-30.545-23.538-68.843-37.556-110.435-37.556
		c-42.32,0-81.225,14.509-112.027,38.797c-4.847,3.824-20.608,8.685-31.178-2.46C 209.176,307.101, 189.913,209.865, 189.913,151.195
		c0,0,0-90.637, 226.087-90.395s 226.087,90.395, 226.087,90.395C 642.087,210.719, 622.466,309.119, 557.429,369.389z" data-tags="davicon-user" />
<glyph unicode="&#xe02f;" d="M 255.026,442.435A135.652,135.652 180 1 1 526.33,442.435A135.652,135.652 180 1 1 255.026,442.435zM 516.679,312.737C 484.108,281.085, 439.683,261.565, 390.678,261.565c-48.983,0-93.383,19.501-125.95,51.125
		c-77.448-58.457-100.137-167.887-100.137-231.752c0,0,0-90.916, 226.087-90.674s 226.087,90.674, 226.087,90.674
		C 616.765,145.129, 594.084,254.385, 516.679,312.737zM 211.798,449.51c 3.639,93.108, 78.693,168.162, 171.804,171.804C 365.548,675.029, 314.825,713.739, 255.026,713.739
		C 180.106,713.739, 119.374,653.003, 119.374,578.087C 119.374,518.291, 158.084,467.565, 211.798,449.51zM 238.574,347.337l 0.329,0.25c-10.263,16.358-17.935,34.485-22.489,53.816c-33.526,7.307-63.59,23.875-87.342,46.939
		C 51.627,389.885, 28.939,280.455, 28.939,216.587c0,0, 0.025-51.7, 96.993-77.021C 137.45,212.788, 171.019,296.346, 238.574,347.337zM 569.739,442.482C 570.343,442.475, 570.94,442.435, 571.548,442.435c 74.92,0, 135.652,60.736, 135.652,135.652S 646.468,713.739, 571.548,713.739
		c-62.371,0-114.877-42.114-130.729-99.442C 515.203,592.557, 569.717,523.786, 569.739,442.482zM 697.549,448.389C 664.978,416.737, 620.553,397.217, 571.548,397.217c-2.532,0-5.046,0.083-7.553,0.188
		c-4.627-17.816-11.97-34.542-21.505-49.761l 0.326-0.242c 70.138-52.875, 103.624-140.981, 113.839-216.186
		c 140.952,19.382, 140.984,85.374, 140.984,85.374C 797.635,280.781, 774.954,390.037, 697.549,448.389z" data-tags="davicon-users" />
<glyph unicode="&#xe030;" d="M 339.735,593.161A75.361,75.361 180 1 1 490.457,593.1610000000001A75.361,75.361 180 1 1 339.735,593.1610000000001zM 497.995,487.652L 332.196,487.652 c-16.647,0-30.144-13.496-30.144-30.144l0-158.261 l0-7.539 c0-16.647, 13.496-30.144, 30.144-30.144l 7.539,0 
		l0-195.943 c0-16.647, 13.496-30.144, 30.144-30.144l 90.435,0 c 16.647,0, 30.144,13.496, 30.144,30.144L 490.457,261.565 l 7.539,0 c 16.647,0, 30.144,13.496, 30.144,30.144l0,7.539 
		l0,158.261 C 528.139,474.156, 514.643,487.652, 497.995,487.652z" data-tags="davicon-character" />
<glyph unicode="&#xe031;" d="M 249.3,618.482A75.361,75.361 180 1 1 400.022,618.482A75.361,75.361 180 1 1 249.3,618.482zM 446.429,570.349A68.857,68.857 180 1 1 584.144,570.3489999999999A68.857,68.857 180 1 1 446.429,570.3489999999999zM 348.46,413.973A53.783,53.783 180 1 1 456.026,413.973A53.783,53.783 180 1 1 348.46,413.973zM 461.413,338.67L 343.081,338.67 c-11.88,0-21.513-9.633-21.513-21.513l0-112.949 l0-5.383 c0-11.876, 9.633-21.513, 21.513-21.513
		l 5.379,0 l0-139.841 c0-11.88, 9.633-21.513, 21.513-21.513l 64.545,0 c 11.876,0, 21.509,9.633, 21.509,21.513l0,139.841 l 5.383,0 
		c 11.88,0, 21.509,9.637, 21.509,21.513l0,5.383 l0,112.949 C 482.922,329.037, 473.292,338.67, 461.413,338.67zM 313.328,374.797c-5.303,11.992-8.277,25.242-8.277,39.176c0,36.821, 20.579,68.922, 50.839,85.41
		c 6.385,4.612, 3.874,13.591-7.43,13.591c-16.278,0-106.699,0-106.699,0c-16.647,0-30.144-13.496-30.144-30.144l0-158.261 l0-7.539 
		c0-16.647, 13.496-30.144, 30.144-30.144l 7.539,0 l0-195.943 c0-16.647, 13.496-30.144, 30.144-30.144l 25.608,0 l0,85.436 
		c-16.282,11.807-26.895,30.983-26.895,52.59l0,118.332 C 278.159,342.229, 292.47,363.981, 313.328,374.797zM 591.035,473.949c0,0-89.798,0-100.198,0s-6.576-7.694-4.203-11.84c 8.139-14.202, 12.806-30.632, 12.806-48.137
		c0-13.938-2.97-27.185-8.277-39.176c 20.861-10.809, 35.172-32.567, 35.172-57.64l0-118.332 c0-21.607-10.613-40.782-26.895-52.59L 499.439,60.8 l 57.169,0 
		c 15.204,0, 27.539,12.332, 27.539,27.543l0,179.028 l 6.888,0 c 15.211,0, 27.539,12.335, 27.539,27.543l0,6.888 L 618.574,446.407 
		C 618.574,461.618, 606.246,473.949, 591.035,473.949z" data-tags="davicon-group" />
<glyph unicode="&#xe032;" d="M 672.835,693.843L 153.739,693.843 c-43.883,0-79.583-35.7-79.583-79.583L 74.157,95.165 c0-43.883, 35.7-79.583, 79.583-79.583l 293.566,0 l0,270.067 c0,0-46.227,0-68.383,0
	s-22.609,22.037-22.609,22.037L 356.313,377.322 c0,0,0,21.357, 25.774,21.357s 65.218,0, 65.218,0L 447.305,455.548 c0,81.529, 61.224,147.861, 136.484,147.861l 66.886,0 
	c0,0, 24.106-0.452, 24.106-24.417s0-43.409,0-65.113s-26.819-23.14-26.819-23.14l-64.173,0 c-10.729,0-22.746-14.596-22.746-34.123l0-57.936 l 88.727,0 
	c0,0, 25.011-0.105, 25.011-21.357s0-49.287,0-69.635s-25.915-22.037-25.915-22.037l-87.823,0 L 561.043,15.583 L 672.835,15.583 c 43.883,0, 79.583,35.7, 79.583,79.583L 752.417,614.261 
	C 752.417,658.143, 716.717,693.843, 672.835,693.843z" data-tags="davicon-facebook" />
<glyph unicode="&#xe033;" d="M 725.453,568.826c-18.496-4.598-30.766-15.417-56.080-13.196
	c 14.781,15.425, 43.781,37.375, 44.588,59.521c 0.192,5.224-0.279,9.203-7.061,4.898c-20.796-11.568-44.552-20.171-71.523-25.56
	c-85.862,89.791-250.276,19.82-233.195-121.447c-119.884,8.342-190.687,65.786-259.512,125.194c-12.44,10.599-18.706-3.375-20.652-10.57
	c-16.85-62.255, 20.717-127.596, 46.99-153.486c-15.551,2.912-29.127,7.803-43.477,11.916c-9.771,5.075-9.224-5.035-8.703-8.725
	c 9.080-64.429, 48.741-98.292, 100.759-119.783c-12.867-6.529-27.3-4.931-41.488-2.312c-15.128,4.844-9.55-5.857-8.096-9.687
	c 18.593-48.983, 64.299-70.861, 117.594-85.157c-41.828-30.625-111.662-53.686-174.362-53.863c-18.315,1.617-6.584-4.59-2.297-6.956
	c 253.080-139.751, 578.005,39.777, 560.435,342.578c 19.483,20.71, 45.141,35.251, 59.615,60.986C 730.257,565.43, 733.882,571.449, 725.453,568.826z
	" data-tags="davicon-twitter" />
<glyph unicode="&#xe034;" d="M 689.949,115.972l-57.683,57.679l 57.683,57.683c 10.621,10.621, 10.624,27.832,0,38.453
	c-10.621,10.621-27.832,10.621-38.453,0l-57.683-57.679l-59.043,59.043C 564.592,309.456, 582.4,357.574, 582.4,409.878
	c0,124.865-101.218,226.087-226.087,226.087C 231.441,635.965, 130.222,534.743, 130.226,409.878c-0.004-124.865, 101.215-226.087, 226.087-226.087
	c 52.959,0, 101.627,18.257, 140.159,48.755l 58.888-58.888l-57.683-57.683c-10.617-10.621-10.617-27.832,0-38.453
	c 10.624-10.624, 27.836-10.621, 38.456,0l 57.683,57.683l 57.679-57.683c 10.621-10.624, 27.829-10.624, 38.453,0
	C 700.573,88.14, 700.573,105.348, 689.949,115.972z M 356.309,251.607C 268.899,251.61, 198.041,322.468, 198.038,409.878
	c 0.004,87.411, 70.861,158.268, 158.272,158.272c 87.414,0, 158.272-70.861, 158.272-158.272C 514.581,322.464, 443.724,251.607, 356.309,251.607z" data-tags="davicon-female" />
<glyph unicode="&#xe035;" d="M 575.867,297.037c 88.29,88.293, 88.293,231.441,0,319.738c-88.297,88.293-231.444,88.293-319.738,0
	c-88.293-88.29-88.293-231.437,0-319.738c 37.563-37.563, 85.056-59.083, 134.028-64.686l0-138.416 l-66.245,66.245
	c-10.205,10.205-26.743,10.205-36.948,0s-10.205-26.743,0-36.948l 110.783-110.786c 0.633-0.637, 1.299-1.241, 1.997-1.812
	c 0.235-0.192, 0.485-0.358, 0.723-0.539c 0.438-0.333, 0.872-0.673, 1.331-0.98c 0.326-0.217, 0.669-0.405, 1.002-0.608
	c 0.394-0.235, 0.781-0.485, 1.19-0.702c 0.355-0.188, 0.716-0.347, 1.078-0.521c 0.409-0.195, 0.818-0.398, 1.237-0.572
	c 0.358-0.148, 0.723-0.268, 1.085-0.398c 0.441-0.159, 0.875-0.326, 1.324-0.463c 0.369-0.109, 0.745-0.192, 1.114-0.286
	c 0.452-0.116, 0.901-0.239, 1.36-0.333c 0.438-0.087, 0.883-0.137, 1.32-0.203c 0.402-0.061, 0.796-0.134, 1.205-0.174
	c 0.846-0.083, 1.693-0.127, 2.543-0.13c 0.011,0, 0.022,0, 0.033,0l0,0c 0.861,0, 1.722,0.047, 2.579,0.13
	c 0.383,0.040, 0.756,0.109, 1.132,0.163c 0.467,0.069, 0.933,0.123, 1.396,0.213c 0.434,0.087, 0.854,0.21, 1.281,0.315
	c 0.398,0.101, 0.803,0.188, 1.194,0.307c 0.42,0.127, 0.828,0.286, 1.237,0.43c 0.391,0.141, 0.792,0.271, 1.179,0.43
	c 0.38,0.159, 0.749,0.347, 1.125,0.525c 0.398,0.192, 0.803,0.369, 1.19,0.575c 0.362,0.192, 0.698,0.409, 1.045,0.619
	c 0.383,0.228, 0.774,0.445, 1.147,0.695c 0.38,0.253, 0.738,0.535, 1.107,0.814c 0.315,0.235, 0.64,0.456, 0.948,0.709
	c 0.611,0.499, 1.194,1.031, 1.754,1.584c 0.051,0.054, 0.105,0.094, 0.159,0.145l 110.851,110.848c 10.205,10.208, 10.205,26.747,0,36.952
	s-26.743,10.205-36.948,0l-66.249-66.249l0,138.492 C 491.18,238.128, 538.456,259.623, 575.867,297.037z M 304.085,568.819
	c 61.81,61.807, 162.019,61.807, 223.83,0c 61.81-61.81, 61.81-162.019,0-223.83s-162.019-61.81-223.83,0
	C 242.278,406.8, 242.278,507.012, 304.085,568.819z" data-tags="davicon-male" />
<glyph unicode="&#xe036;" d="M 635.438,414.519c-18.593,0-36.196-4.232-51.895-11.785c-27.861,76.797-101.461,131.673-187.88,131.673
	c-110.352,0-199.81-89.458-199.81-199.81c0-3.657, 0.112-7.289, 0.307-10.899c-11.829,6.916-25.579,10.899-40.269,10.899
	c-44.139,0-79.926-35.787-79.926-79.926c0-36.829, 24.92-67.819, 58.808-77.087c 4.008-1.809, 8.443-2.84, 13.124-2.84l 7.994,0 l 119.884,0 l 239.782,0 
	l 119.884,0 l 7.991,0 c 2.89,0, 5.672,0.416, 8.338,1.136c 58.482,7.965, 103.559,58.081, 103.559,118.748
	C 755.326,360.845, 701.651,414.519, 635.438,414.519z" data-tags="davicon-cloud" />
<glyph unicode="&#xe037;" d="M 235.13,352A180.87,180.87 180 1 1 596.87,352A180.87,180.87 180 1 1 235.13,352zM 406.957,578.087l 18.087,0 c 19.975,0, 36.174,16.199, 36.174,36.174L 461.217,677.565 c0,19.975-16.199,36.174-36.174,36.174l-18.087,0 c-19.975,0-36.174-16.199-36.174-36.174l0-63.304 
		C 370.783,594.286, 386.981,578.087, 406.957,578.087zM 198.58,505.475c 14.126-14.126, 37.031-14.126, 51.161,0l 12.787,12.787c 14.126,14.126, 14.126,37.031,0,51.161
		L 217.763,614.185c-14.126,14.126-37.031,14.126-51.157,0l-12.791-12.787c-14.126-14.126-14.126-37.031,0-51.161L 198.58,505.475zM 189.913,342.957l0,18.087 c0,19.975-16.199,36.174-36.174,36.174L 90.435,397.217 c-19.975,0-36.174-16.199-36.174-36.17l0-18.091 c0-19.975, 16.199-36.174, 36.174-36.174l 63.304,0 
		C 173.714,306.783, 189.913,322.981, 189.913,342.957zM 249.737,198.529c-14.126,14.122-37.031,14.122-51.161,0l-44.762-44.765
		c-14.126-14.126-14.126-37.031-0.004-51.157l 12.795-12.791c 14.122-14.122, 37.028-14.122, 51.157,0l 44.762,44.765
		c 14.126,14.122, 14.126,37.028,0,51.157L 249.737,198.529zM 425.043,125.913l-18.087,0.004c-19.975-0.004-36.174-16.202-36.178-36.178L 370.783,26.435c0-19.975, 16.199-36.174, 36.17-36.174l 18.094,0 
		c 19.972,0, 36.167,16.199, 36.17,36.174l-0.004,63.304C 461.217,109.714, 445.019,125.913, 425.043,125.913zM 633.42,198.525c-14.122,14.126-37.028,14.126-51.157,0.004l-12.791-12.787c-14.122-14.13-14.122-37.035,0-51.164
		l 44.765-44.762c 14.126-14.122, 37.031-14.122, 51.157,0l 12.795,12.791c 14.122,14.122, 14.119,37.028-0.004,51.157L 633.42,198.525zM 741.565,397.217l-63.304-0.004c-19.975,0.004-36.174-16.195-36.174-36.167l-0.004-18.091c 0.004-19.975, 16.202-36.174, 36.178-36.178
		L 741.565,306.783c 19.975,0.004, 36.174,16.202, 36.174,36.174l0,18.091 C 777.739,381.019, 761.54,397.214, 741.565,397.217zM 582.259,505.471c 14.13-14.122, 37.035-14.122, 51.164,0l 44.762,44.765c 14.122,14.13, 14.122,37.035,0,51.161
		l-12.791,12.791c-14.122,14.122-37.028,14.119-51.157-0.004l-44.762-44.765c-14.126-14.122-14.126-37.028-0.004-51.154L 582.259,505.471z" data-tags="davicon-sun" />
<glyph unicode="&#xe038;" d="M 486.228,426.616c-52.163,72.091, 15.327,158.232-3.787,160.070c-101.272,9.734-228.196-140.38-228.185-297.473
	c 0.007-87.798, 55.646-165.051, 143.035-173.447c 87.389-8.4, 165.033,55.632, 173.429,143.032
	C 578.316,337.91, 532.075,363.261, 486.228,426.616z" data-tags="davicon-drop" />
<glyph unicode="&#xe039;" d="M 416.394,190.415c 100.1,0, 181.264,81.156, 181.264,181.26c0,137.768-49.703,264.554-76.508,297.353
		c-13.402,16.394-29.362-42.841-47.080-33.663c-17.736,9.177-37.219,94.002-57.676,94.002c-23.603,0-45.916-86.506-65.721-98.52
		c-15.45-9.38-29.377,50.542-41.206,35.472C 283.94,633.755, 235.13,509.443, 235.13,371.675C 235.13,271.571, 316.29,190.415, 416.394,190.415z
		 M 350.088,434.997c 7.275,7.582, 15.848-22.562, 25.358-17.852c 12.191,6.048, 25.929,49.569, 40.453,49.569c 12.589,0, 24.587-42.674, 35.497-47.29
		c 10.91-4.612, 20.728,25.188, 28.986,16.937c 16.503-16.506, 26.707-75.777, 26.707-100.958c0-50.358-40.829-91.187-91.191-91.187
		s-91.187,40.829-91.187,91.187C 324.712,359.904, 334.37,418.614, 350.088,434.997zM 617.167,119.905l-16.911,6.963l-0.615,0.253l 16.843,6.935c 28.505,11.735, 42.099,44.364, 30.368,72.869l-10.628,25.806
		c-1.867,4.533-4.261,8.685-7.086,12.422c-6.396,10.118-21.317,9.666-29.106-1.953c-23.618-33.855-56.297-60.928-94.526-77.665l 0.040-0.014
		c-27.355-11.872-57.488-18.51-89.154-18.51c-31.92,0-62.281,6.732-89.802,18.785c-38.225,16.738-70.908,43.807-94.526,77.665
		c-7.788,11.619-22.71,12.071-29.106,1.953c-2.825-3.733-5.22-7.89-7.086-12.422l-10.628-25.806c-11.731-28.505, 1.863-61.13, 30.368-72.869
		l 16.911-6.963l-16.926-6.916c-28.545-11.655-42.215-44.244-30.56-72.782l 10.559-25.843c 11.662-28.534, 44.248-42.215, 72.786-30.56
		l 147.904,60.439l 147.745-60.83c 28.509-11.735, 61.134,1.859, 72.869,30.372l 10.628,25.806C 659.262,75.541, 645.668,108.17, 617.167,119.905z" data-tags="davicon-fire" />
<glyph unicode="&#xe03a;" d="M 325.565,319.896A101.739,101.739 180 1 1 529.043,319.896A101.739,101.739 180 1 1 325.565,319.896zM 696.348,534.678L 325.565,534.678 L 325.565,543.722 c0,19.975-16.195,36.174-36.174,36.174L 180.87,579.896 c-19.979,0-36.174-16.199-36.174-36.174l0-9.043 l-9.043,0 c-19.979,0-36.174-16.199-36.174-36.174
		L 99.478,163.896 c0-19.975, 16.195-36.174, 36.174-36.174l 560.696,0 c 19.979,0, 36.174,16.199, 36.174,36.174L 732.522,498.504 C 732.522,518.48, 716.327,534.678, 696.348,534.678z M 201.424,489.461
		c-12.411,0-22.471,10.060-22.471,22.471l0,16.857 c0,12.411, 10.060,22.471, 22.471,22.471l 67.417,0 c 12.411,0, 22.471-10.064, 22.471-22.475l0-16.853 
		c0-12.411-10.060-22.471-22.471-22.471L 201.424,489.461 z M 427.304,172.939c-81.163,0-146.957,65.793-146.957,146.957S 346.141,466.852, 427.304,466.852
		s 146.957-65.793, 146.957-146.957S 508.468,172.939, 427.304,172.939z" data-tags="davicon-camera" />
<glyph unicode="&#xe03b;" d="M 416,713.739C 216.219,713.739, 54.261,551.785, 54.261,352s 161.954-361.739, 361.739-361.739c 199.781,0, 361.739,161.954, 361.739,361.739S 615.785,713.739, 416,713.739z
		 M 416,80.696c-149.84,0-271.304,121.465-271.304,271.304s 121.465,271.304, 271.304,271.304c 149.836,0, 271.304-121.465, 271.304-271.304S 565.84,80.696, 416,80.696zM 416,532.87c-7.387,0-14.665-0.445-21.82-1.306c-13.677-1.407-17.971-13.276-9.886-20.384
		C 403.697,494.598, 416,469.956, 416,442.435c0-49.945-40.489-90.435-90.435-90.435c-29.127,0-55.024,13.782-71.556,35.172
		c-5.654,7.56-13.341,9.257-15.678-1.176C 236.234,374.985, 235.13,363.623, 235.13,352c0-99.891, 80.979-180.87, 180.87-180.87
		c 43.108,0, 82.683,15.088, 113.76,40.262c 4.71,3.375, 2.901,9.478-2.463,12.082C 514.751,231.508, 506.435,245.565, 506.435,261.565
		c0,24.971, 20.25,45.217, 45.217,45.217c 9.289,0, 17.913-2.807, 25.090-7.611c 3.538-2.366, 11.084-2.561, 13.283,3.437
		c 4.453,15.699, 6.848,32.267, 6.848,49.392C 596.87,451.891, 515.894,532.87, 416,532.87z" data-tags="davicon-lens" />
<glyph unicode="&#xe03c;" d="M 714.424,519.543l-323.937,58.519c-47.109,8.512-92.359-22.891-100.867-70l-57.556-318.598
		c-8.512-47.109, 22.894-92.359, 70-100.871l 323.941-58.519c 47.106-8.512, 92.356,22.891, 100.867,70l 57.553,318.598
		C 792.936,465.785, 761.533,511.035, 714.424,519.543z M 740.892,432.056l-59.484-329.28c-3.549-19.661-22.37-32.719-42.027-29.167
		l-329.28,59.481c-19.661,3.552-32.719,22.374-29.167,42.030L 340.418,504.401c 3.552,19.661, 22.37,32.719, 42.030,29.167l 329.277-59.481
		C 731.386,470.531, 744.445,451.71, 740.892,432.056zM 620.835,306.707C 594.46,314.618, 564.313,282.065, 538.991,279.652s-34.969,67.526-97.67,73.552s-120.025-59.781-120.025-59.781
		l-21.972-121.624c-1.773-9.814, 4.771-19.241, 14.585-21.017l 329.28-59.481c 9.814-1.773, 19.237,4.768, 21.013,14.582l 19.831,109.763
		C 684.034,215.646, 647.216,298.792, 620.835,306.707zM 86.817,272.417L 86.817,607.026 c0,19.975, 16.195,36.174, 36.174,36.174l 334.609,0 c 19.979,0, 36.174-16.199, 36.174-36.174l0-10.863 l 45.217-8.168L 538.991,601.6 
		c0,47.869-38.948,86.817-86.817,86.817L 122.991,688.417 c-47.869,0-86.817-38.948-86.817-86.817l0-323.757 c0-47.869, 38.948-86.817, 86.817-86.817l 72.72,0 
		c 0.228,1.621, 0.459,3.241, 0.752,4.869L 203.753,236.243L 122.991,236.243 C 103.012,236.243, 86.817,252.442, 86.817,272.417zM 195.339,488.253c-65.113-21.708-89.831-92.243-89.831-92.243L 105.508,272.417 c0-9.973, 8.114-18.087, 18.087-18.087l 83.428,0 l 40.276,222.962
		C 247.299,477.292, 220.607,496.678, 195.339,488.253zM 664.005,414.566c-5.491,0.98-10.91,0.658-15.938-0.742c-4.174,24.132-23.010,44.205-48.516,48.759
		c-32.571,5.813-63.684-15.873-69.501-48.444c-0.195-1.082-0.355-2.163-0.485-3.238c-3.125,2.662-6.978,4.562-11.312,5.339
		c-13.030,2.326-25.474-6.352-27.8-19.378c-1.943-10.87, 3.78-21.328, 13.294-25.85c 1.089-0.749, 2.34-1.284, 3.726-1.53l 2.359-0.423
		l 35.382-6.316l 70.771-12.628l 35.382-6.316l 2.359-0.423c 0.85-0.148, 1.697-0.174, 2.521-0.101c 17.678-0.731, 33.624,11.688, 36.818,29.594
		C 696.561,392.406, 683.546,411.076, 664.005,414.566z" data-tags="davicon-photos" />
<glyph unicode="&#xe03d;" d="M 414.191,578.087C 239.381,578.087, 97.67,476.869, 97.67,352c0-44.002,0-86.499, 68.304-86.499
	c 34.079,0, 53.248,34.325, 89.957,34.325c 62.433,0, 113.043-38.934, 113.043-86.955c0-19.588-8.425-37.65-22.63-52.184
	C 337.296,151.441, 321.948,125.913, 414.191,125.913c 174.807,0, 316.522,101.218, 316.522,226.087S 588.998,578.087, 414.191,578.087z M 275.504,426.811
	c-1.671-8.779-12.567-14.459-18.698-19.838c-6.844-6.001-12.552-11.554-20.771-14.958c-10.925-4.522-21.675-8.443-32.372-2.015
	c-10.241,6.153-10.129,12.458-10.132,23.723c0,9.127-2.662,17.183-2.709,25.955c-0.101,19.194, 23.643,40.508, 40.877,44.161
	c 0.727,0.156, 1.476,0.304, 2.25,0.445c 9.42,1.736, 21.943,2.344, 27.608-4.927c 7.6-9.752, 3.552-22.352, 7.285-32.144
	C 271.149,441.165, 276.824,433.735, 275.504,426.811z M 356.519,442.417c-16.271,1.15-18.34,9.507-18.293,24.349
	c 0.033,10.176-3.878,30.021-0.061,39.668c 3.042,7.687, 19.943,16.477, 27.21,20.218c 1.65,0.85, 3.321,1.555, 5.006,2.123
	c 26.096,8.808, 55.332-15.124, 54.659-43.080C 424.237,452.278, 384.616,440.424, 356.519,442.417z M 478.896,434.115
	c-4.75,3.607-11.749,4.489-14.079,10.132c-4.446,10.783, 3.234,27.912, 7.202,37.071c 3.632,8.381, 7.372,15.616, 16.528,17.186
	c 6.642,1.136, 17.085,1.248, 26.903-0.206c 8.486-1.255, 16.51-3.675, 21.202-7.607c 6.562-5.502, 10.038-14.99, 14.343-22.164
	c 6.649-11.095, 14.314-21.538, 16.687-34.231c 7.112-38.059-56.612-27.619-74.583-13.522C 487.859,424.883, 484.134,430.139, 478.896,434.115z
	 M 594.149,236.927c-8.881-9.040-22.547-9.478-31.663-17.624c-6.547-5.849-6.001-14.31-15.359-18.329c-22.406-9.629-47.713,1.885-58.598,22.58
	c-6.244,11.876, 0.687,17.045, 4.316,28.064c 3.444,10.451-2.51,16.166-2.684,26.226c-0.307,17.581, 20.388,22.609, 34.358,22.609
	c 4.522,0, 9.141-0.586, 13.674-1.686c 7.955-1.932, 15.634-5.451, 22.023-10.179c 8.675-6.424, 14.998-15.193, 25.618-19.147
	c 3.845-1.432, 9.593,0.014, 12.816-1.682C 611.079,261.236, 600.581,243.475, 594.149,236.927z M 676.521,342.052
	c 0.666-9.673-10.375-15.671-18.156-17.183c-14.806-2.879-17.707,8.287-28.19,13.355c-15.327,7.416-41.256-12.397-47.793,10.089
	c-5.806,19.982, 24.461,31.189, 28.907,48.017c 2.348,8.888-1.364,16.557, 8.19,18.923c 6.381,1.581, 11.037-2.641, 16.293-5.278
	c 1.639-0.825, 3.335-1.487, 5.162-1.776c 7.209-1.143, 13.406,3.693, 20.514,2.42c 10.686-1.917, 23.101-13.442, 24.953-23.556
	c 2.297-12.52-6.685-10.252-12.386-18.047C 666.103,358.211, 675.83,352.080, 676.521,342.052z" data-tags="davicon-art" />
<glyph unicode="&#xe03e;" d="M 173.208,237.075c 10.183,0.586, 20.561-2.959, 28.328-10.722c 9.351-9.351, 12.607-22.507, 9.832-34.535
		c 12.028,2.771, 25.177-0.481, 34.532-9.836c 9.355-9.355, 12.607-22.504, 9.836-34.539c 12.035,2.775, 25.184-0.481, 34.539-9.836
		c 7.821-7.817, 11.366-18.293, 10.711-28.548l 312.083,312.087l-127.893,127.889L 173.208,237.075zM 700.678,559.92L 623.942,636.653c-14.126,14.126-37.028,14.126-51.161,0l-53.718-53.715l 127.893-127.893
		l 53.718,53.718C 714.811,522.889, 714.807,545.791, 700.678,559.92zM 119.982,82.396l-3.65-20.814c0-4.996, 4.044-9.040, 9.025-9.043l 20.825,3.635
		c 0.814,6.942-1.418,14.173-6.728,19.491C 134.144,80.971, 126.916,83.203, 119.982,82.396zM 229.003,112.735c-2.203-2.203-5.777-2.207-7.98-0.004s-2.203,5.777,0,7.98
		c 10.031,10.031, 10.031,26.356,0,36.395c-10.031,10.031-26.356,10.031-36.391,0c-2.203-2.203-5.777-2.203-7.98-0.004
		c-2.203,2.203-2.199,5.781,0,7.98c 10.031,10.031, 10.031,26.36,0,36.391c-9.93,9.93-26.009,10.024-36.069,0.3
		c-0.025-0.246-0.105-0.488-0.105-0.731l-15.652-89.303c 13.037,0.137, 26.121-4.732, 36.047-14.658c 9.933-9.933, 14.799-23.032, 14.654-36.080
		l 89.201,15.58c 0.333-0.004, 0.669,0.087, 1.006,0.134c 9.673,10.056, 9.572,26.103-0.34,36.015
		C 255.359,122.766, 239.034,122.766, 229.003,112.735z" data-tags="davicon-pencil" />
<glyph unicode="&#xe03f;" d="M 743.208,575.83L 277.957,644.289c-19.765,2.908-38.145-10.762-41.054-30.524L 161.864,103.778
		c-2.908-19.765, 10.758-38.145, 30.524-41.054l 465.251-68.459c 19.765-2.908, 38.145,10.758, 41.057,30.524l 75.039,509.987
		C 776.636,554.541, 762.973,572.921, 743.208,575.83z M 675.020,174.524L 227.664,240.349L 280.323,598.236l 447.356-65.822L 675.020,174.524zM 95.861,672.139l 129.336,0 l 161.661,0 L 548.035,672.139 l0-23.716 l 45.217-6.656L 593.252,681.183 c0,19.975-16.195,36.174-36.174,36.174L 86.817,717.357 c-19.979,0-36.174-16.199-36.174-36.174
		l0-515.478 c0-19.975, 16.195-36.174, 36.174-36.174l 34.958,0 l 26.613,180.87L 95.861,310.4 L 95.861,672.139 z" data-tags="davicon-polaroid" />
<glyph unicode="&#xe040;" d="M 724.231,107.685l-171.862,171.888c-8.201,8.201-19.346,11.605-30.028,10.291l-23.589,23.589
	C 527.405,351.334, 544.417,398.509, 544.417,449.67c0,124.865-101.222,226.087-226.087,226.087c-124.865,0-226.087-101.222-226.087-226.087s 101.222-226.087, 226.087-226.087
	c 51.157,0, 98.328,17.009, 136.213,45.655l 23.589-23.589c-1.313-10.679, 2.091-21.824, 10.288-30.028l 171.866-171.888
	c 14.122-14.126, 37.028-14.126, 51.157,0l 12.784,12.787C 738.353,70.65, 738.353,93.555, 724.231,107.685z M 160.037,449.67
	c0,87.425, 70.868,158.297, 158.293,158.297S 476.627,537.095, 476.627,449.67c0-87.421-70.872-158.293-158.297-158.297
	C 230.905,291.373, 160.037,362.244, 160.037,449.67z" data-tags="davicon-search" />
<glyph unicode="&#xe041;" d="M 724.231,106.404l-171.862,171.888c-8.201,8.201-19.346,11.605-30.028,10.291l-23.585,23.589
		c 28.646,37.889, 45.659,85.063, 45.659,136.22c0,124.865-101.218,226.087-226.087,226.087s-226.087-101.222-226.087-226.087s 101.218-226.087, 226.087-226.087
		c 51.157,0, 98.328,17.009, 136.213,45.655l 23.589-23.589c-1.309-10.679, 2.091-21.824, 10.288-30.028l 171.862-171.888
		c 14.126-14.126, 37.035-14.126, 51.161,0l 12.787,12.787C 738.353,69.37, 738.353,92.275, 724.231,106.404z M 160.037,448.389
		c0,87.425, 70.868,158.297, 158.293,158.297s 158.293-70.872, 158.293-158.297c0-87.421-70.868-158.293-158.293-158.297
		C 230.905,290.096, 160.037,360.968, 160.037,448.389zM 401.758,473.859L 346.141,473.859 L 346.141,529.476 c0,15.356-12.447,27.811-27.811,27.811s-27.811-12.451-27.811-27.811l0-55.617 L 234.906,473.859 
		c-15.356,0-27.811-12.447-27.811-27.811s 12.451-27.811, 27.811-27.811l 55.617,0 l0-55.617 c0-15.356, 12.447-27.811, 27.811-27.811
		s 27.811,12.451, 27.811,27.811L 346.145,418.242 l 55.617,0 c 15.356,0, 27.811,12.447, 27.811,27.811S 417.114,473.859, 401.758,473.859z" data-tags="davicon-enlarge" />
<glyph unicode="&#xe042;" d="M 724.231,108.853l-171.862,171.888c-8.201,8.201-19.346,11.605-30.028,10.291l-23.585,23.589
		c 28.646,37.889, 45.659,85.063, 45.659,136.22c0,124.865-101.218,226.087-226.087,226.087s-226.087-101.222-226.087-226.087s 101.218-226.087, 226.087-226.087
		c 51.157,0, 98.328,17.009, 136.213,45.655l 23.589-23.589c-1.309-10.679, 2.091-21.824, 10.288-30.028l 171.862-171.888
		c 14.126-14.126, 37.035-14.126, 51.161,0l 12.787,12.787C 738.353,71.819, 738.353,94.724, 724.231,108.853z M 160.037,450.838
		c0,87.425, 70.868,158.297, 158.293,158.297s 158.293-70.872, 158.293-158.297c0-87.421-70.868-158.293-158.293-158.297
		C 230.905,292.541, 160.037,363.413, 160.037,450.838zM 401.758,476.308L 234.906,476.308 c-15.356,0-27.811-12.447-27.811-27.811s 12.451-27.811, 27.811-27.811l 166.852,0 
		c 15.356,0, 27.811,12.447, 27.811,27.811S 417.114,476.308, 401.758,476.308z" data-tags="davicon-reduce" />
<glyph unicode="&#xe043;" d="M 691.16,201.878l-143.241,143.245c-27.977,27.973-71.726,30.639-102.813,8.168l-34.817,34.817
	c 22.468,31.088, 19.805,74.837-8.168,102.81L 260.159,632.88c-31.026,31.030-81.514,31.030-112.544,0l-12.787-12.787
	c-31.030-31.030-31.030-81.518,0-112.544l 141.961-141.965c 27.528-27.528, 70.351-30.574, 101.338-9.253l 35.208-35.208
	c-21.321-30.983-18.275-73.806, 9.253-101.338l 143.245-143.245c 31.026-31.026, 81.514-31.026, 112.544,0l 12.787,12.791
	C 722.194,120.364, 722.194,170.852, 691.16,201.878z M 307.482,396.277L 165.521,538.238c-14.126,14.126-14.126,37.031,0,51.161l 12.787,12.787
	c 14.126,14.126, 37.031,14.126, 51.157,0l 141.965-141.961c 10.968-10.968, 13.377-27.224, 7.311-40.562L 332.424,465.98
	c-8.83,8.83-23.144,8.83-31.974,0c-8.83-8.826-8.83-23.14,0-31.974l 45.814-45.818C 333.285,383.11, 317.965,385.794, 307.482,396.277z
	 M 660.467,120.028l-12.787-12.787c-14.126-14.126-37.031-14.126-51.161,0l-143.241,143.241c-10.483,10.483-13.167,25.803-8.085,38.782
	l 47.095-47.098c 8.83-8.826, 23.144-8.826, 31.974,0c 8.83,8.83, 8.83,23.144,0,31.978l-47.594,47.594c 13.337,6.070, 29.59,3.661, 40.562-7.311
	l 143.241-143.245C 674.593,157.059, 674.593,134.15, 660.467,120.028z" data-tags="davicon-link" />
<glyph unicode="&#xe044;" d="M 730.952,165.592l-143.241,143.245c-28.075,28.071-72.029,30.657-103.139,7.929l-23.187,23.187
		c-8.83,8.83-23.144,8.83-31.974,0c-8.834-8.826-8.834-23.14,0-31.974l 23.47-23.47c-21.071-30.958-17.939-73.581, 9.492-101.012
		l 143.245-143.245c 31.026-31.026, 81.514-31.026, 112.544,0l 12.787,12.791C 761.985,84.078, 761.985,134.566, 730.952,165.592z M 700.258,83.741
		l-12.787-12.787c-14.126-14.126-37.031-14.126-51.161,0l-143.241,143.241c-10.371,10.371-13.095,25.474-8.233,38.362l 40.041-40.041
		c 8.826-8.826, 23.14-8.83, 31.974,0s 8.826,23.144-0.004,31.978l-40.775,40.775c 13.406,6.294, 29.869,3.947, 40.945-7.13l 143.241-143.245
		C 714.384,120.773, 714.384,97.864, 700.258,83.741zM 377.468,423.223c 22.384,31.081, 19.693,74.761-8.248,102.705L 227.252,667.889c-31.026,31.030-81.514,31.030-112.544,0
		l-12.787-12.787c-31.030-31.030-31.030-81.518,0-112.544l 141.961-141.965c 27.561-27.561, 70.452-30.578, 101.446-9.174l 17.653-17.653
		c 8.826-8.826, 23.14-8.83, 31.974,0c 8.826,8.83, 8.826,23.144-0.004,31.978L 377.468,423.223z M 274.574,431.286L 132.614,573.247
		c-14.126,14.126-14.126,37.031,0,51.161l 12.787,12.787c 14.126,14.126, 37.031,14.126, 51.157,0l 141.965-141.961
		c 10.932-10.932, 13.363-27.12, 7.369-40.432L 299.487,501.203c-8.834,8.83-23.144,8.83-31.974,0c-8.834-8.826-8.834-23.137,0-31.974
		l 45.981-45.981C 300.489,418.093, 285.097,420.767, 274.574,431.286zM 460.349,490.036c 12.487,0.004, 22.609,10.125, 22.605,22.616L 482.954,603.072 c-0.007,12.494-10.154,22.616-22.641,22.616
		c-12.491,0.004-22.609-10.118-22.609-22.612l0-90.424 C 437.708,500.165, 447.858,490.036, 460.349,490.036zM 278.51,309.499c-0.004,12.487-10.125,22.609-22.616,22.605l-90.424-0.004c-12.491-0.007-22.612-10.154-22.612-22.638
		c-0.004-12.491, 10.114-22.612, 22.609-22.612L 255.894,286.851 C 268.381,286.858, 278.507,297.008, 278.51,309.499zM 273.656,245.811l-63.937-63.945c-8.826-8.837-8.812-23.166, 0.018-31.996c 8.826-8.834, 23.137-8.837, 31.974-0.004
		l 63.945,63.945c 8.823,8.834, 8.808,23.169-0.022,32.007C 296.8,254.645, 282.489,254.645, 273.656,245.811zM 369.842,219.965c-12.491-0.004-22.609-10.125-22.609-22.616l 0.007-90.424c 0.007-12.494, 10.154-22.612, 22.638-22.612
		c 12.487-0.007, 22.609,10.111, 22.609,22.605l0,90.431 C 392.48,209.837, 382.329,219.962, 369.842,219.965zM 551.681,400.502c0-12.491, 10.125-22.609, 22.616-22.612l 90.42,0.007c 12.498,0.007, 22.616,10.158, 22.616,22.641
		c 0.007,12.487-10.114,22.605-22.609,22.605L 574.297,423.143 C 561.806,423.14, 551.681,412.989, 551.681,400.502zM 556.539,464.19l 63.934,63.941c 8.83,8.841, 8.812,23.173-0.018,32.003c-8.826,8.834-23.137,8.83-31.974-0.004
		l-63.941-63.941c-8.83-8.834-8.816-23.173, 0.018-32.003C 533.388,455.352, 547.702,455.356, 556.539,464.19z" data-tags="davicon-unlink" />
<glyph unicode="&#xe045;" d="M 414.712,581.697c-12.491,0.004-22.609-10.118-22.609-22.612l 0.029-90.424c 0.004-12.487, 10.125-22.616, 22.616-22.616
		c 12.487,0.004, 22.609,10.125, 22.605,22.616L 437.353,559.081 C 437.343,571.576, 427.199,581.697, 414.712,581.697zM 326.907,432.046L 248.602,477.256c-10.823,6.244-24.66,2.514-30.907-8.298c-6.251-10.816-2.543-24.642, 8.28-30.885
		l 78.32-45.188c 10.816-6.24, 24.649-2.539, 30.896,8.277C 341.431,411.976, 337.727,425.802, 326.907,432.046zM 303.394,318.091l-78.306-45.21c-10.816-6.254-14.509-20.102-8.266-30.914c 6.244-10.82, 20.069-14.524, 30.889-8.273
		L 326.003,278.929c 10.812,6.251, 14.527,20.077, 8.28,30.896C 328.040,320.634, 314.21,324.341, 303.394,318.091zM 412.929,263.37c-12.484-0.007-22.609-10.129-22.605-22.62l0-90.42 c 0.007-12.494, 10.154-22.616, 22.641-22.616
		c 12.491-0.004, 22.612,10.118, 22.609,22.612l-0.029,90.424C 435.541,253.238, 425.42,263.367, 412.929,263.37zM 601.702,271.339l-78.32,45.188c-10.816,6.24-24.649,2.539-30.896-8.277c-6.24-10.816-2.536-24.645, 8.284-30.885
		l 78.306-45.21c 10.823-6.244, 24.66-2.514, 30.907,8.298C 616.233,251.27, 612.526,265.096, 601.702,271.339zM 524.283,391.321l 78.306,45.21c 10.816,6.254, 14.509,20.098, 8.266,30.914c-6.244,10.82-20.069,14.524-30.889,8.273
		l-78.295-45.235c-10.812-6.251-14.527-20.080-8.28-30.896C 499.641,388.778, 513.463,385.070, 524.283,391.321z" data-tags="davicon-spark" />
<glyph unicode="&#xe046;" d="M 731.187,428.522c-4.388,9.745-21.987,10.136-21.987,10.136l-190.427,18.85l-80.964,172.937
	c0,0-9.423,23.719-22.008,23.607c-12.585,0.109-22.005-23.607-22.005-23.607L 312.828,457.508l-190.427-18.85c0,0-17.602-0.387-21.99-10.136
	c-4.384-9.745, 8.041-21.646, 8.041-21.646l 140.731-145.231l-34.21-188.314c0,0-3.339-14.734, 3.697-19.089
	c 7.188-4.446, 19.27,1.212, 19.27,1.212l 177.853,85.139l 177.853-85.139c0,0, 12.082-5.658, 19.27-1.212c 7.039,4.355, 3.697,19.089, 3.697,19.089
	l-34.21,188.314l 140.731,145.231C 723.145,406.876, 735.575,418.777, 731.187,428.522z" data-tags="davicon-star" />
<glyph unicode="&#xe047;" d="M 770.971,446.342c-11.178,24.823-37.23,34.637-58.627,35.646l-164.526,16.289l-70.033,149.59
	c-5.542,13.323-24.114,49.591-61.68,49.598l-0.188,0 c-37.57,0-56.149-36.268-61.695-49.598L 284.182,498.276l-164.526-16.289
	c-21.397-1.006-47.449-10.82-58.631-35.649c-12.335-27.409, 1.237-54.706, 16.89-70.116L 202.69,247.457l-30.082-165.604
	c-5.813-27.297, 3.107-51.946, 23.433-64.527c 8.667-5.361, 18.944-8.201, 29.71-8.201c 14.292,0, 26.309,4.905, 30.813,7.014l 159.44,76.327
	l 159.44-76.327c 4.5-2.109, 16.517-7.014, 30.813-7.014c 10.769,0, 21.039,2.836, 29.717,8.204c 20.319,12.578, 29.239,37.227, 23.426,64.523
	l-30.082,165.604l 124.775,128.765C 769.734,391.629, 783.306,418.925, 770.971,446.342z M 723.344,406.876l-140.731-145.231l 34.21-188.314
	c0,0, 3.342-14.734-3.697-19.089c-7.188-4.446-19.27,1.212-19.27,1.212L 416,140.592l-177.853-85.139c0,0-12.082-5.658-19.27-1.212
	c-7.039,4.355-3.697,19.089-3.697,19.089l 34.21,188.314L 108.656,406.876c0,0-12.429,11.901-8.041,21.646c 4.388,9.745, 21.99,10.136, 21.99,10.136
	l 190.427,18.85l 80.964,172.937c0,0, 9.423,23.719, 22.005,23.607c 12.585,0.109, 22.008-23.607, 22.008-23.607l 80.964-172.937l 190.427-18.85
	c0,0, 17.599-0.387, 21.987-10.136S 723.344,406.876, 723.344,406.876z" data-tags="davicon-star-outer" />
<glyph unicode="&#xe048;" d="M 415.038,668.522c-226.087,0-271.304-130.924-271.304-180.87s 121.468-90.435, 271.304-90.435c 149.84,0, 271.304,40.489, 271.304,90.435
		S 641.125,668.522, 415.038,668.522zM 521.407,345.018c0,0-1.646,13.988-16.108,12.115c-28.219-3.487-58.613-5.133-90.258-5.133
		c-29.768,0-58.403,1.603-85.193,4.558c-19.896,2.225-20.807-16.108-20.807-16.108l-25.22-240.473c0,0-4.164-19.281, 8.747-26.345
		c 19.784-12.719, 61.344-38.153, 77.253-38.153c 23.781,0, 128.349,30.531, 167.341,41.419c 14.929,5.155, 11.518,21.99, 11.518,21.99L 521.407,345.018z" data-tags="davicon-staddle" />
<glyph unicode="&#xe049;" d="M 479.952,352l 166.263,166.263c 14.13,14.126, 14.126,37.031,0,51.157l-12.787,12.791
	c-14.122,14.122-37.028,14.126-51.161,0l-166.263-166.263L 249.745,582.211c-14.13,14.126-37.031,14.126-51.157,0l-12.791-12.791
	c-14.126-14.122-14.13-37.028,0-51.157L 352.059,352l-166.263-166.263c-14.126-14.126-14.126-37.031,0-51.161l 12.791-12.787
	c 14.126-14.126, 37.031-14.126, 51.157,0l 166.259,166.263l 166.263-166.263c 14.13-14.13, 37.035-14.126, 51.161,0l 12.787,12.787
	c 14.126,14.126, 14.13,37.028,0,51.161L 479.952,352z" data-tags="davicon-cross" />
<glyph unicode="&#xe04a;" d="M 684.996,530.706l-12.324,13.236c-13.616,14.618-36.503,15.443-51.125,1.823l-305.995-284.909L 211.762,364.65
	c-14.126,14.126-37.031,14.126-51.157,0l-12.791-12.787c-14.126-14.126-14.126-37.031,0-51.161l 140.684-140.684
	c 6.631-6.631, 15.2-10.111, 23.886-10.512c 0.365-0.022, 0.727-0.047, 1.092-0.054c 0.535-0.011, 1.071,0.004, 1.61,0.018
	c 0.774,0.018, 1.545,0.047, 2.315,0.112c 0.13,0.011, 0.26,0.029, 0.391,0.043c 7.658,0.723, 15.15,3.849, 21.216,9.496l 344.166,320.461
	C 697.795,493.198, 698.609,516.085, 684.996,530.706z" data-tags="davicon-tick" />
<glyph unicode="&#xe04b;" d="M 605.674,621.496l-379.826,0 c-43.883,0-79.583-35.7-79.583-79.583l0-379.826 c0-43.883, 35.7-79.583, 79.583-79.583l 379.826,0 c 43.883,0, 79.583,35.7, 79.583,79.583l0,379.826 
	C 685.257,585.796, 649.553,621.496, 605.674,621.496z M 641.848,162.087c0-19.975-16.199-36.174-36.174-36.174l-379.826,0 c-19.979,0-36.174,16.199-36.174,36.174l0,379.826 
	c0,19.975, 16.195,36.174, 36.174,36.174l 379.826,0 c 19.975,0, 36.174-16.199, 36.174-36.174L 641.848,162.087 z" data-tags="davicon-square-outer" />
<glyph unicode="&#xe04c;" d="M 415.761,623.304c-149.84,0-271.304-121.465-271.304-271.304s 121.465-271.304, 271.304-271.304c 149.836,0, 271.304,121.465, 271.304,271.304S 565.594,623.304, 415.761,623.304z
	 M 415.761,125.913c-124.865,0-226.087,101.218-226.087,226.087s 101.222,226.087, 226.087,226.087s 226.087-101.218, 226.087-226.087S 540.623,125.913, 415.761,125.913z" data-tags="davicon-circle-outer" />
<glyph unicode="&#xe04d;" d="M 693.635,198.33L 475.455,590.397l-2.413,2.963c-14.564,17.881-35.534,28.14-57.527,28.14
	c-21.987,0-42.938-10.248-57.488-28.111l-2.406-2.952L 137.454,198.905c-15.048-21.361-17.248-50.448-5.357-75.459
	c 11.677-24.569, 35.27-39.831, 61.528-39.831l 443.25-0.463c 25.249,0, 48.502,15.931, 60.689,41.578
	C 709.58,150.012, 707.985,177.747, 693.635,198.33z M 636.874,126.561l-443.206,0.463c-23.585,0-32.846,32.093-19.686,48.256l 217.709,390.704
	c 13.16,16.163, 34.517,16.148, 47.699-0.033l 217.673-391.17C 670.241,158.6, 655.576,126.561, 636.874,126.561z" data-tags="davicon-triangle-outer" />
<glyph unicode="&#xe04e;" d="M 605.537,578.087l-379.826,0 c-19.979,0-36.174-16.199-36.174-36.174l0-379.826 c0-19.975, 16.195-36.174, 36.174-36.174l 379.826,0 c 19.975,0, 36.174,16.199, 36.174,36.174l0,379.826 
	C 641.711,561.888, 625.516,578.087, 605.537,578.087z" data-tags="davicon-square" />
<glyph unicode="&#xe04f;" d="M 189.537,352A226.087,226.087 180 1 1 641.711,352A226.087,226.087 180 1 1 189.537,352z" data-tags="davicon-circle" />
<glyph unicode="&#xe050;" d="M 656.925,174.78L 439.253,565.951c-13.182,16.181-34.539,16.195-47.699,0.033L 173.848,175.276
	c-13.16-16.163-3.896-48.256, 19.686-48.256l 443.206-0.463C 655.439,126.561, 670.107,158.6, 656.925,174.78z" data-tags="davicon-triangle" />
<glyph unicode="&#xe051;" d="M 731.581,428.522c-4.388,9.745-21.987,10.136-21.987,10.136l-190.427,18.85l-80.964,172.937
	c0,0-9.423,23.719-22.008,23.607c-12.585,0.109-22.008-23.607-22.008-23.607L 313.226,457.508l-190.427-18.85c0,0-17.599-0.387-21.987-10.136
	s 8.041-21.646, 8.041-21.646l 140.731-145.231l-34.21-188.314c0,0-3.342-14.734, 3.697-19.089c 7.188-4.446, 19.27,1.212, 19.27,1.212
	l 177.853,85.139l 177.853-85.139c0,0, 12.082-5.658, 19.27-1.212c 7.039,4.355, 3.697,19.089, 3.697,19.089l-34.21,188.314l 140.731,145.231
	C 723.543,406.876, 735.969,418.777, 731.581,428.522z M 536.115,275.829l 28.751-158.283l-148.671,71.169l-148.671-71.169l 28.751,158.283
	L 175.697,400.274l 166.371,16.47l 74.128,158.33l 74.128-158.33l 166.371-16.47L 536.115,275.829z" data-tags="davicon-rating-empty" />
<glyph unicode="&#xe052;" d="M 731.581,428.522c-4.388,9.745-21.987,10.136-21.987,10.136l-190.427,18.85l-80.964,172.937
	c0,0-9.423,23.719-22.008,23.607c-12.585,0.109-22.008-23.607-22.008-23.607L 313.226,457.508l-190.427-18.85c0,0-17.599-0.387-21.987-10.136
	s 8.041-21.646, 8.041-21.646l 140.731-145.231l-34.21-188.314c0,0-3.342-14.734, 3.697-19.089c 7.188-4.446, 19.27,1.212, 19.27,1.212
	l 177.853,85.139l 177.853-85.139c0,0, 12.082-5.658, 19.27-1.212c 7.039,4.355, 3.697,19.089, 3.697,19.089l-34.21,188.314l 140.731,145.231
	C 723.543,406.876, 735.969,418.777, 731.581,428.522z M 536.115,275.829l 28.751-158.283l-148.671,71.169L 416.195,575.070 l 74.128-158.33l 166.371-16.47
	L 536.115,275.829z" data-tags="davicon-rating-half" />
<glyph unicode="&#xe053;" d="M 731.187,428.522c-4.388,9.745-21.987,10.136-21.987,10.136l-190.427,18.85l-80.964,172.937
	c0,0-9.423,23.719-22.008,23.607c-12.585,0.109-22.008-23.607-22.008-23.607L 312.828,457.508l-190.427-18.85c0,0-17.599-0.387-21.987-10.136
	s 8.041-21.646, 8.041-21.646l 140.731-145.231l-34.21-188.314c0,0-3.342-14.734, 3.697-19.089c 7.188-4.446, 19.27,1.212, 19.27,1.212
	l 177.853,85.139l 177.853-85.139c0,0, 12.082-5.658, 19.27-1.212c 7.039,4.355, 3.697,19.089, 3.697,19.089l-34.21,188.314l 140.731,145.231
	C 723.145,406.876, 735.575,418.777, 731.187,428.522z" data-tags="davicon-rating-full" />
<glyph unicode="&#xe054;" d="M 687.29,465.091C 687.293,465.376, 687.304,465.658, 687.304,465.948c0,0.072-0.036,0.141-0.040,0.21
	c-0.843,82.766-68.17,149.612-151.135,149.612c-48.983,0-92.504-23.314-120.13-59.434c-27.626,36.12-71.143,59.434-120.126,59.434
	c-82.968,0-150.295-66.846-151.138-149.612C 144.732,466.089, 144.696,466.020, 144.696,465.948c0-0.289, 0.011-0.572, 0.011-0.857
	c0-0.166-0.011-0.333-0.011-0.499c0-0.626, 0.040-1.244, 0.047-1.87c 2.019-238.531, 226.243-372.978, 271.239-372.324
	c 44.993,0.658, 269.261,133.8, 271.275,372.324c 0.007,0.626, 0.047,1.241, 0.047,1.87C 687.304,464.758, 687.293,464.92, 687.29,465.091z" data-tags="davicon-heart" />
<glyph unicode="&#xe055;" d="M 416,646.817c-74.92,0-135.652-60.732-135.652-135.652s 90.435-452.174, 135.652-452.174s 135.652,377.254, 135.652,452.174S 490.92,646.817, 416,646.817z
	 M 416,420.73c-49.945,0-90.435,40.489-90.435,90.435s 40.489,90.435, 90.435,90.435c 49.945,0, 90.435-40.489, 90.435-90.435S 465.945,420.73, 416,420.73z" data-tags="davicon-map-pin" />
<glyph unicode="&#xe056;" d="M 280.348,578.087A135.652,135.652 180 1 1 551.652,578.087A135.652,135.652 180 1 1 280.348,578.087zM 370.783,402.275C 370.783,261.565, 416-9.739, 416-9.739s 45.217,271.304, 45.217,412.014c-13.981-2.749-32.499-5.057-45.217-5.057
		S 383.143,399.496, 370.783,402.275z" data-tags="davicon-pin" />
<glyph unicode="&#xe057;" d="M 126.609,383.33L 414.372,351.356L 446.346,63.596L 704.407,641.391 z" data-tags="davicon-locate" />
<glyph unicode="&#xe058;" d="M 416,645.913c-162.323,0-293.913-131.59-293.913-293.913s 131.59-293.913, 293.913-293.913s 293.913,131.59, 293.913,293.913
		S 578.323,645.913, 416,645.913z M 416,125.913c-70.282,0-133.069,32.068-174.536,82.372c 1.646,1.505, 3.151,3.256, 4.695,5.151
		c 6.027,7.39, 6.095,13.63, 3.44,22.605c-2.952,9.995-6.453,20.865-9.431,31.135c-3.61,12.451-8.881,27.065-14.737,38.695
		c-2.901,5.763-8.002,10.986-9.441,17.034c-0.503,0.101-1.002,0.203-1.505,0.304c-0.304,6.146-8.28,10.726-11,16.51
		c-4.594,9.76-4.692,21.028-5.343,31.576c-0.449,7.278-3.017,11.659-5.285,17.020c 2.192,13.572, 5.592,26.74, 10.089,39.39
		c 8.378,7.361, 46.943,32.018, 52.832,14.571c 5.057-14.983, 19.223-3.361, 24.349,3.071c 5.933,7.437, 18.416,13.113, 21.947,21.303
		c 6.218,14.419-6.522,12.722-16.3,13.768c-10.266,1.096-12.18,9.774-8.088,19.845c 6.291,15.479, 25.112,16.611, 39.969,17.233
		c 18.315,0.767, 31.869,10.414, 41.354,25.296c 10.042,15.757, 23.339,16.593, 40.717,18.091c 5.133,0.445, 36.575,8.056, 29.713,16.774
		c 37.523-2.199, 72.583-13.533, 102.991-31.837c-3.071-2.767-5.263-6.92-6.095-12.907c-1.595-11.5, 0.043-18.253-8.523-26.396
		c-16.394-15.584-41.886-13.837-62.241-20.851c-12.274-4.225-42.385-12.4-42.479-28.762c-0.047-8.378, 14.748-27.876, 23.716-29.84
		c 16.864-3.693, 34.040,2.257, 50.643-3.871c 15.142-5.589, 26.389-23.77, 34.637-36.829c 8.707-13.786, 17.827-41.336, 40.243-34.184
		c 19.201,6.121, 6.623,32.781, 20.76,42.588c 13.652,9.474, 28.932-19.075, 35.461-29.203c 4.858-7.535, 6.58-9.615, 13.594-1.805
		c 3.704,4.127, 5.437,8.978, 8.588,12.885c 0.875-8.099, 1.36-16.314, 1.36-24.645C 642.087,227.135, 540.865,125.913, 416,125.913zM 539.896,337.509c-12.111,2.539-18.474,12.621-23.849,22.384c-7.061,12.824-16.568,25.181-27.948,34.434
		c-11.098,9.025-24.819,10.675-39.524,10.129c-10.259-0.38-21.386-4.363-30.542-8.993c-15.472-7.821-31.453-17.175-46.321-26.259
		c-28.056-17.139-42.812-37.827-26.23-68.969c 7.047-13.236, 15.765-26.32, 28.259-35.045c 9.347-6.529, 19.957-10.103, 29.8-15.374
		c 23.64-12.657, 34.141-33.653, 35.95-59.694c 0.846-12.162, 5.213-65.511, 27.811-57.94c 10.386,3.48, 14.285,25.372, 19.284,34.224
		c 6.92,12.245, 14.303,25.119, 19.143,37.983c 5.469,14.542, 14.759,22.2, 22.185,34.597c 6.142,10.273, 2.72,24.363, 4.449,35.617
		c 2.178,14.126, 7.557,24.703, 16.821,35.573c 7.184,8.429, 21.448,17.295, 19.516,29.93C 560.641,339.267, 550.024,335.385, 539.896,337.509zM 527.235,202.783c 1.035,0.619, 1.946,1.132, 2.818,1.603c 0.836,0.85, 1.443,1.545, 1.704,2.015L 527.235,202.783zM 530.053,204.385c-6.012-6.131-24.121-20.796-13.667-24.251c 7-2.319, 28.48,18.109, 26.993,26.128
		C 537.172,207.236, 534.325,206.679, 530.053,204.385zM 372.801,486.907c 11.044,3.596, 12.632,18.507, 20.391,26.114c 4.862,4.764, 14.155,8.143, 14.672,15.327
		c 1.32,18.293-21.741,5.383-28.407,0.394c-6.291-22.67-39.039-6.707-45.926-26.62C 328.296,487.005, 361.764,483.315, 372.801,486.907zM 378.922,528.348c 0.152,0.119, 0.362,0.264, 0.532,0.394c 0.13,0.463, 0.264,0.915, 0.373,1.414L 378.922,528.348zM 400.626,448.765c-7.419-0.416-10.935-5.893-15.576-11.514c-6.996-8.476-24.215-24.985-20.663-36.637
		c 4.699,1.476, 6.605,4.511, 9.988,7.474c 5.86,5.133, 11.851,6.179, 19.798,7.922c 8.186,1.798, 23.050,4.612, 22.746,15.634
		c-0.148,5.415-8.157,15.786-13.58,17.114L 400.626,448.758 z" data-tags="davicon-globe" />
<glyph unicode="&#xe059;" d="M 225.078,604.082c-12.809-2.156-25.528-15.331-28.411-29.431L 122.315,210.882c-2.879-14.097, 5.166-23.777, 17.975-21.628
		l 92.772,15.609L 317.849,619.687L 225.078,604.082zM 344.589,613.559L 259.801,198.735L 359.677,139.551L 444.465,554.371 	zM 471.209,548.243L 386.421,133.419L 502.383,152.931L 587.168,567.756 	zM 693.248,511.494l-79.206,50.759l-84.784-414.821l 79.206-50.763c 10.935-7.011, 22.135-1.262, 25.018,12.838
		l 74.355,363.768C 710.709,487.37, 704.183,504.48, 693.248,511.494z" data-tags="davicon-map" />
<glyph unicode="&#xe05a;" d="M 476.262,527.064A62.216,135.641 118.797 1 1 536.206,636.111A62.216,135.641 118.797 1 1 476.262,527.064zM 389.058,562.351L 288.444,414.082c-0.926-1.129-1.762-2.344-2.489-3.668
		c-28.769-52.347, 6.678-88.387, 59.018-117.156c 52.347-28.765, 101.768-39.375, 130.534,12.972c 0.731,1.32, 1.309,2.68, 1.762,4.070
		l 71.266,164.472c-27.593,4.883-57.77,15.775-86.463,31.551C 433.288,522.144, 407.973,541.638, 389.058,562.351zM 421.242,244.137c-25.683,0.004-53.736,8.845-88.286,27.832c-35.157,19.328-57.896,38.645-71.559,60.801
		c-12.205,19.787-22.232,51.009-4.344,90.214c-22.782-1.783-39.983-9.731-47.912-24.157c-20.579-37.44, 28.914-104.156, 110.533-149.011
		c 81.623-44.859, 164.472-50.879, 185.051-13.442c 7.672,13.96, 5.589,32.003-4.261,51.457C 476.678,252.030, 444.718,244.137, 421.242,244.137
		zM 279.997,248.872L 186.296,28.070l 22.337,0 l 129.322,190.958c-7.477,3.512-23.086,8.588-30.458,12.639
		C 300.117,235.723, 286.964,244.455, 279.997,248.872z" data-tags="davicon-thumbtack" />
<glyph unicode="&#xe05b;" d="M 273.797,490.872c-16.647,0.014-21.263-24.634-12.867-34.145l 138.731-193.183c 8.396-9.51, 22.012-9.525, 30.397-0.022
		l 138.745,192.908c 8.385,9.507, 5.723,34.434-12.549,34.441L 482.922,490.872 L 482.922,663.36 c0,19.979-16.199,36.174-36.174,36.174L 383.443,699.534 c-19.975,0-36.174-16.195-36.174-36.174l0-172.488 L 273.797,490.872 zM 607.722,618.142l-7.235,0 l-47.627,0 L 546.226,618.142 c-9.991,0-18.087-8.096-18.087-18.087L 528.139,591.012 c0-9.991, 8.096-18.087, 18.087-18.087l 6.634,0 L 600.487,572.925 l 3.617,0 c 19.979,0, 36.174-16.199, 36.174-36.174
		l0-280.348 l0-7.235 c0-19.975-16.195-36.174-36.174-36.174L 226.087,212.995 c-19.979,0-36.174,16.199-36.174,36.174l0,7.235 L 189.913,536.751 c0,19.975, 16.195,36.174, 36.174,36.174L 231.513,572.925 l 50.039,0 L 285.774,572.925 c 9.991,0, 18.087,8.096, 18.087,18.087l0,9.043 
		c0,9.991-8.096,18.087-18.087,18.087l-4.221,0 L 231.513,618.142 l-7.235,0 c-43.883,0-79.583-35.7-79.583-79.583l0-282.157 l0-10.852 L 144.696,117.134 c0-43.883, 35.7-79.583, 79.583-79.583l 383.443,0 c 43.883,0, 79.583,35.7, 79.583,79.583l0,128.417 
		l0,10.852 l0,282.157 C 687.304,582.442, 651.604,618.142, 607.722,618.142z" data-tags="davicon-save" />
<glyph unicode="&#xe05c;" d="M 649.322,624.513l-54.261,0 l0-142.887 c0-19.979-16.195-36.174-36.174-36.174L 314.713,445.452 c-19.979,0-36.174,16.195-36.174,36.174l0,142.887 L 179.061,624.513 
		c-19.979,0-36.174-16.199-36.174-36.174l0-468.452 c0-19.975, 16.195-36.174, 36.174-36.174l 470.261,0 c 19.979,0, 36.174,16.199, 36.174,36.174l0,468.452 
		C 685.496,608.314, 669.301,624.513, 649.322,624.513z M 595.061,165.104c0-19.979-16.195-36.174-36.174-36.174L 278.539,128.93 c-19.979,0-36.174,16.195-36.174,36.174l0,153.739 
		c0,19.979, 16.195,36.174, 36.174,36.174l 280.348,0 c 19.979,0, 36.174-16.195, 36.174-36.174L 595.061,165.104 zM 495.583,490.669l 18.087,0 c 19.979,0, 36.174,16.195, 36.174,36.174l0,54.261 c0,19.979-16.195,36.174-36.174,36.174l-18.087,0 c-19.979,0-36.174-16.195-36.174-36.174l0-54.261 
		C 459.409,506.864, 475.604,490.669, 495.583,490.669z" data-tags="davicon-floppy" />
<glyph unicode="&#xe05d;" d="M 595.061,426.829l-18.355,0 c0,16.329,0,57.046,0,69.146c0,89.751-72.76,162.508-162.515,162.508
	S 251.68,585.723, 251.68,495.969c0-12.093,0-52.81,0-69.139L 233.322,426.829 c-24.081,0-43.604-19.523-43.604-43.608l0-288.458 
	c0-24.081, 19.519-43.604, 43.604-43.604l 361.739-0.004c 24.081,0, 43.604,19.523, 43.604,43.604l0,288.462 
	C 638.665,407.303, 619.142,426.829, 595.061,426.829z M 338.693,492.854c0,41.698, 33.801,75.495, 75.499,75.495s 75.499-33.797, 75.499-75.495
	c0-3.856,0-36.796,0-66.028L 338.693,426.826 C 338.693,456.061, 338.693,488.998, 338.693,492.854z" data-tags="davicon-lock" />
<glyph unicode="&#xe05e;" d="M 597.065,401.508L 337.079,401.508 c0,50.068,0,109.202,0,113.054c0,41.698, 33.801,75.495, 75.499,75.495
	s 75.495-33.797, 75.495-75.495l0-4.496 c0,0, 2.236-30.849, 43.836-30.849s 43.181,30.849, 43.181,30.849l0,7.615 
	c0,89.751-72.757,162.508-162.511,162.508S 250.063,607.428, 250.063,517.673c0-8.678,0-67.291,0-116.165l-14.741,0 
	c-24.081,0-43.604-19.523-43.604-43.608l0-288.458 c0-24.081, 19.519-43.604, 43.604-43.604l 361.739-0.004c 24.081,0, 43.604,19.523, 43.604,43.604
	l0,288.462 C 640.665,381.981, 621.146,401.508, 597.065,401.508z" data-tags="davicon-unlock" />
<glyph unicode="&#xe05f;" d="M 411.182,652.772c-130.714,0-189.222-88.583-189.222-176.362c0-28.404, 23.028-51.439, 51.443-51.439
		c 28.411,0, 51.436,23.036, 51.436,51.439c0,33.53, 14.98,73.484, 86.344,73.484c 79.923,0, 91.856-57.553, 91.856-91.856
		c0-67.142-64.455-77.159-102.875-77.159c-28.411,0-51.439-23.032-51.439-51.436l0-88.181 c0-28.404, 23.028-51.439, 51.439-51.439
		s 51.439,23.036, 51.439,51.439l0,41.564 c 82.914,15.927, 154.314,71.845, 154.314,175.212C 605.913,554.975, 545.698,652.772, 411.182,652.772zM 402.916,155.84c-28.411,0-51.439-23.021-51.439-51.439c0-28.418, 23.028-51.439, 51.439-51.439
		s 51.439,23.017, 51.439,51.439C 454.355,132.819, 431.323,155.84, 402.916,155.84z" data-tags="davicon-question" />
<glyph unicode="&#xe060;" d="M 415.139,206.114c 28.411,0, 51.436,23.036, 51.436,51.439l 0.011,328.184c0,28.404-23.028,51.439-51.439,51.439
		s-51.439-23.036-51.439-51.439l-0.011-328.184C 363.696,229.15, 386.728,206.114, 415.139,206.114zM 415.139,172.125c-28.411,0-51.436-23.021-51.436-51.439c0-28.418, 23.025-51.439, 51.436-51.439
		c 28.411,0, 51.443,23.017, 51.443,51.439C 466.578,149.104, 443.55,172.125, 415.139,172.125z" data-tags="davicon-exclaim" />
<glyph unicode="&#xe061;" d="M 513.67,149.426l-54.261,0 L 459.409,411.687 l0,18.087 c0,19.979-16.199,36.174-36.174,36.174l-18.087,0 L 314.713,465.948 c-19.975,0-36.174-16.195-36.174-36.174l0-18.087 c0-19.979, 16.199-36.174, 36.174-36.174l 54.261,0 
		L 368.974,149.426 L 314.713,149.426 c-19.975,0-36.174-16.195-36.174-36.174l0-18.087 c0-19.979, 16.199-36.174, 36.174-36.174l 198.957,0 c 19.975,0, 36.174,16.195, 36.174,36.174l0,18.087 C 549.843,133.231, 533.645,149.426, 513.67,149.426zM 324.060,578.839A67.674,67.674 180 1 1 459.409,578.8389999999999A67.674,67.674 180 1 1 324.060,578.8389999999999z" data-tags="davicon-info" />
<glyph unicode="&#xe062;" d="M 560.688,675.131L 560.696,675.156l-0.51,0 L 271.304,675.156 l-0.51,0 l 0.007-0.025C 251.058,674.859, 235.13,658.795, 235.13,638.982l0-551.652 
	c0-45.217, 39.187-54.764, 61.21-25.459s 88.015,117.225, 88.015,117.225s 13.439,21.082, 31.392,21.028c 17.953,0.054, 31.392-21.028, 31.392-21.028
	s 65.992-87.924, 88.015-117.225s 61.21-19.758, 61.21,25.459l0,551.652 C 596.36,658.795, 580.432,674.859, 560.688,675.131z" data-tags="davicon-bookmark" />
<glyph unicode="&#xe063;" d="M 653.077,356.193c-29.308,9.991-117.229,70.405-117.225,72.467c-0.004-0.119-21.082,13.757-21.028,31.822
	c-0.047,17.848, 21.028,30.838, 21.028,30.961c-0.004-2.062, 87.924,69.508, 117.225,103.562c 29.308,32.014, 19.758,65.818-25.459,54.785
	C 443.735,610.256, 368.37,714.618, 184.487,671.904c-5.582-1.284-10.849-3.961-15.569-7.539C 156.745,658.538, 148.313,646.145, 148.313,631.747l0-5.893 
	c0-0.17,0-0.34,0-0.51c0-96.295,0-192.586,0-288.881c0-0.17,0-0.34,0-0.51l0-310.119 c0-19.979, 16.199-36.174, 36.174-36.174l 18.087,0 
	c 19.975,0, 36.174,16.195, 36.174,36.174L 238.748,319.552 c 146.522,13.601, 224.181-66.401, 388.87-30.994C 672.835,299.595, 682.374,344.161, 653.077,356.193z" data-tags="davicon-flag" />
<glyph unicode="&#xe064;" d="M 414.126,604.208c-163.539,0-296.116-132.577-296.116-296.116c0-84.893, 35.776-161.379, 93.007-215.376l0-46.907 
		c0-18.695, 15.153-33.841, 33.841-33.841l 340.198,0 c 18.695,0, 33.841,15.15, 33.841,33.841l0,48.484 c 56.265,53.899, 91.354,129.727, 91.354,213.799
		C 710.253,471.627, 577.672,604.208, 414.126,604.208z M 414.126,75.418c-128.493,0-232.663,104.17-232.663,232.671
		c0,128.493, 104.17,232.663, 232.663,232.663c 128.501,0, 232.671-104.17, 232.671-232.663C 646.8,179.588, 542.63,75.418, 414.126,75.418zM 547.243,357.582l-120.9-50.871L 359.471,465.156c-4.529,10.769-16.929,15.819-27.695,11.29
		s-15.819-16.929-11.29-27.695l 75.090-177.932c 4.529-10.762, 16.929-15.819, 27.695-11.29l 140.373,59.058c 10.769,4.536, 15.826,16.937, 11.297,27.695
		C 570.412,357.050, 558.012,362.111, 547.243,357.582zM 673.938,639.058c-57.469,41.26-123.176,48.093-146.758,15.255c-23.585-32.831, 25.246-63.178, 82.704-104.452
		c 57.477-41.267, 101.83-77.832, 125.408-44.993C 758.882,537.71, 731.404,597.791, 673.938,639.058zM 220.314,554.975C 275.587,599.147, 322.78,631.972, 297.538,663.548c-25.246,31.58-90.511,21.379-145.777-22.793
		C 96.49,596.575, 72.149,535.167, 97.395,503.59C 122.63,472.011, 165.051,510.811, 220.314,554.975z" data-tags="davicon-alarm" />
<glyph unicode="&#xe065;" d="M 652.939,578.087l-473.878,0 c-43.883,0-79.583-35.7-79.583-79.583l0-293.009 c0-43.883, 35.7-79.583, 79.583-79.583l 473.878,0 c 43.883,0, 79.583,35.7, 79.583,79.583l0,293.009 
	C 732.522,542.387, 696.822,578.087, 652.939,578.087z M 663.994,530.471l-212.384-212.384c-14.126-14.126-37.031-14.122-51.157,0L 185.673,532.87L 651.13,532.87 
	C 655.667,532.87, 659.989,531.998, 663.994,530.471z M 651.13,171.13L 180.87,171.13 c-19.979,0-36.174,16.199-36.174,36.174L 144.696,496.696 c0,3.972, 0.666,7.781, 1.845,11.355l 223.215-223.211
	c 31.030-31.030, 81.522-31.030, 112.548,0L 687.304,489.837L 687.304,207.304 C 687.304,187.329, 671.109,171.13, 651.13,171.13z" data-tags="davicon-mail" />
<glyph unicode="&#xe066;" d="M 179.061,422.239l 198.957,0 c 19.975,0, 36.174,16.195, 36.174,36.174l0,3.617 c0,19.979-16.199,36.174-36.174,36.174L 272.339,498.204 L 403.592,626.017
		c 7.264,7.264, 10.765,16.846, 10.559,26.364c 0.004,0.257, 0.040,0.51, 0.040,0.767l0,3.617 c0,19.979-16.199,36.174-36.174,36.174l-198.957,0 c-19.975,0-36.174-16.195-36.174-36.174
		l0-3.617 c0-19.979, 16.199-36.174, 36.174-36.174l 106.373,0 L 153.486,488.484c-7.173-7.173-10.689-16.611-10.574-26.016c0-0.148-0.022-0.293-0.022-0.441l0-3.617 
		C 142.887,438.434, 159.086,422.239, 179.061,422.239zM 271.952,292.812c 0.514,0.517, 1.002,1.056, 1.461,1.617c 0.217,0.26, 0.402,0.535, 0.604,0.807
		c 0.242,0.322, 0.492,0.64, 0.716,0.973c 0.213,0.318, 0.394,0.651, 0.593,0.977c 0.184,0.307, 0.376,0.608, 0.546,0.926
		c 0.174,0.329, 0.322,0.669, 0.481,1.002c 0.156,0.333, 0.326,0.662, 0.467,1.002c 0.134,0.322, 0.239,0.651, 0.358,0.977
		c 0.134,0.373, 0.275,0.738, 0.391,1.118c 0.094,0.318, 0.163,0.64, 0.246,0.959c 0.101,0.394, 0.213,0.789, 0.293,1.19
		c 0.069,0.358, 0.109,0.713, 0.163,1.071c 0.054,0.376, 0.127,0.742, 0.159,1.121c 0.058,0.586, 0.076,1.172, 0.090,1.762
		c 0.004,0.152, 0.022,0.3, 0.022,0.456c0,0.166-0.022,0.326-0.025,0.488c-0.011,0.579-0.033,1.154-0.087,1.729
		c-0.040,0.405-0.112,0.799-0.174,1.197c-0.051,0.329-0.087,0.658-0.152,0.984c-0.087,0.434-0.206,0.857-0.315,1.284
		c-0.076,0.286-0.134,0.572-0.221,0.854c-0.127,0.42-0.282,0.825-0.43,1.234c-0.105,0.282-0.199,0.572-0.315,0.854
		c-0.159,0.387-0.347,0.76-0.528,1.132c-0.141,0.293-0.268,0.586-0.42,0.872c-0.199,0.373-0.423,0.723-0.64,1.082
		c-0.166,0.275-0.318,0.55-0.496,0.821c-0.279,0.412-0.582,0.807-0.883,1.201c-0.148,0.192-0.279,0.387-0.43,0.575
		c-0.955,1.165-2.022,2.232-3.187,3.187c-0.184,0.156-0.383,0.286-0.575,0.43c-0.394,0.304-0.789,0.608-1.205,0.886
		c-0.264,0.174-0.535,0.326-0.807,0.488c-0.362,0.224-0.716,0.449-1.092,0.648c-0.282,0.152-0.575,0.279-0.865,0.416
		c-0.376,0.181-0.752,0.369-1.143,0.528c-0.282,0.116-0.568,0.21-0.854,0.315c-0.409,0.148-0.814,0.304-1.234,0.427
		c-0.286,0.087-0.572,0.148-0.857,0.224c-0.427,0.109-0.85,0.228-1.284,0.315c-0.326,0.065-0.655,0.098-0.98,0.148
		c-0.398,0.061-0.796,0.134-1.201,0.174c-0.572,0.058-1.147,0.076-1.725,0.087c-0.163,0.004-0.326,0.025-0.492,0.025l-135.652,0 
		c-12.487,0-22.609-10.125-22.609-22.609s 10.121-22.609, 22.609-22.609l 81.069,0 l-96.787-96.787c-0.047-0.047-0.083-0.094-0.127-0.141
		c-4.171-4.102-6.765-9.803-6.765-16.115c0-12.484, 10.121-22.609, 22.609-22.609l 135.652,0 c 12.487,0, 22.609,10.125, 22.609,22.609s-10.121,22.609-22.609,22.609L 174.861,195.721 
		l 97.055,97.055C 271.927,292.787, 271.937,292.801, 271.952,292.812zM 730.713,340.547c0,19.979-16.199,36.174-36.174,36.174l-289.391,0 c-19.975,0-36.174-16.195-36.174-36.174l0-18.087 c0-19.979, 16.199-36.174, 36.174-36.174l 174.015,0 
		l-199.199-190.817c-7.293-7.068-10.946-16.466-10.972-25.875c0-0.116-0.018-0.228-0.018-0.351l0-18.087 c0-19.979, 16.199-36.174, 36.174-36.174l 289.391,0 
		c 19.975,0, 36.174,16.195, 36.174,36.174l0,18.087 c0,19.979-16.199,36.174-36.174,36.174l-173.458,0 l 198.642,190.282c 7.376,7.155, 11.022,16.683, 10.961,26.204
		c 0.004,0.188, 0.029,0.373, 0.029,0.557L 730.713,340.547 z" data-tags="davicon-snooze" />
<glyph unicode="&#xe067;" d="M 698.435,441.885c0,0-377.055,116.704-397.164,122.923c-20.105,6.226-39.997,0.069-39.997,0.069L 174.593,532.87
	c0,0-28.606-7.090-36.782-33.501c-8.172-26.407-19.118-61.771-27.033-87.342c-7.915-25.564, 11.033-52.094, 11.033-52.094l 52.188-73.712
	c0,0, 12.324-17.172, 33.689-23.784c 21.361-6.609, 397.164-122.923, 397.164-122.923c 19.085-5.911, 39.346,4.771, 45.254,23.864l 72.196,233.253
	C 728.206,415.717, 717.524,435.974, 698.435,441.885z M 261.103,413c-8.132-26.349-36.073-41.108-62.4-32.962
	c-26.324,8.146-41.072,36.112-32.944,62.461c 8.132,26.353, 36.076,41.108, 62.4,32.965S 269.239,439.353, 261.103,413z" data-tags="davicon-tag" />
<glyph unicode="&#xe068;" d="M 420.985,634.431C 398.839,617.524, 193.53,465.948, 193.53,465.948l-90.435,0 c-19.979,0-36.174-16.195-36.174-36.174L 66.922,276.035 
	c0-19.979, 16.195-36.174, 36.174-36.174l 90.435,0 c0,0, 197.072-145.976, 221.5-164.074C 439.466,57.689, 473.878,75.186, 473.878,95.165L 473.878,610.643 
	C 473.878,630.622, 443.13,651.339, 420.985,634.431z" data-tags="davicon-volume" />
<glyph unicode="&#xe069;" d="M 518.777,235.52l 166.263,166.263c 14.122,14.126, 14.122,37.031,0,51.157l-12.791,12.791
		c-14.126,14.122-37.031,14.126-51.157,0l-166.263-166.263L 288.567,465.731c-14.13,14.126-37.031,14.126-51.157,0l-12.791-12.791
		c-14.126-14.122-14.13-37.028,0-51.157L 390.884,235.52l-166.263-166.263c-14.126-14.126-14.126-37.031,0-51.161l 12.791-12.787
		c 14.126-14.126, 37.031-14.126, 51.157,0l 166.263,166.263l 166.263-166.263c 14.126-14.13, 37.028-14.126, 51.157,0l 12.791,12.787
		c 14.122,14.126, 14.122,37.028,0,51.161L 518.777,235.52zM 294.249,513.343c 9.224-3.921, 17.704-9.611, 25.011-16.919c0,0, 107.125-106.872, 118.090-118.090
		c 12.744-13.041, 33.996-18.919, 33.996-0.962c0,10.527,0,228.927,0,228.927c0,19.979-30.748,40.696-52.893,23.788
		c-11.388-8.696-71.216-53.002-126.648-93.994C 284.157,530.442, 286.374,516.693, 294.249,513.343zM 461.908,103.109c-4.127,4.297-10.914,3.241-15.587-1.432c-2.579-2.583-11.355-12.686-19.892-19.896
		c-9.644-8.143-2.948-16.307, 1.635-17.193c 21.303-4.113, 43.282,10.266, 43.282,26.237l0,2.84 
		C 471.346,93.664, 466.029,98.812, 461.908,103.109zM 316.996,223.022c 5.133,5.715, 7.694,17.302-2.033,27.029S 245.259,319.751, 245.259,319.751l-51.334,51.334
		c-15.030,15.030-23.31,35.016-23.31,56.276c0,3.48, 0.228,6.924, 0.669,10.317c 0.959,7.34, 0.271,23.929-12.39,23.929S 100.563,461.607, 100.563,461.607
		c-19.979,0-36.174-16.195-36.174-36.174L 64.39,271.694 c0-19.979, 16.195-36.174, 36.174-36.174l 90.435,0 c0,0, 36.243-26.845, 79.561-58.935
		C 270.559,176.585, 311.859,217.306, 316.996,223.022z" data-tags="davicon-mute" />
<glyph unicode="&#xe06a;" d="M 414.133,634.431C 391.988,617.524, 186.679,465.948, 186.679,465.948L 96.244,465.948 c-19.979,0-36.174-16.195-36.174-36.174L 60.070,276.035 c0-19.979, 16.195-36.174, 36.174-36.174l 90.435,0 
		c0,0, 197.072-145.976, 221.504-164.074S 467.027,75.186, 467.027,95.165L 467.027,610.643 C 467.027,630.622, 436.279,651.339, 414.133,634.431zM 630.953,357.053c0,55.089-32.882,102.441-80.053,123.679c-3.332,1.921-7.181,3.039-11.308,3.039
		c-12.527,0-22.681-10.158-22.681-22.681c0-9.662, 6.048-17.888, 14.553-21.158c 31.934-13.96, 54.268-45.803, 54.268-82.882
		c0-38.612-24.215-71.545-58.273-84.513c-8.855-3.089-15.218-11.492-15.218-21.397c0-12.531, 10.154-22.685, 22.681-22.685
		c 3.639,0, 7.058,0.875, 10.103,2.395C 595.339,250.699, 630.953,299.7, 630.953,357.053zM 721.387,357.053c0,92.681-55.795,172.3-135.602,207.201c-3.209,1.733-6.873,2.717-10.773,2.717
		c-12.527,0-22.685-10.158-22.685-22.681c0-9.836, 6.265-18.177, 15.012-21.328c 64.031-27.847, 108.826-91.636, 108.826-165.912
		c0-77.311-48.527-143.263-116.773-169.138c-9.25-2.861-15.967-11.482-15.967-21.668c0-12.531, 10.154-22.685, 22.681-22.685
		c 3.545,0, 6.891,0.836, 9.883,2.29C 660.995,178.354, 721.387,260.632, 721.387,357.053zM 622.908,646.738c-3.27,1.83-7.032,2.883-11.051,2.883c-12.527,0-22.681-10.158-22.681-22.681
		c0-9.572, 5.933-17.736, 14.314-21.068c 95.98-41.795, 163.115-137.446, 163.115-248.815c0-116.299-73.202-215.474-176.037-254.057
		c-8.747-3.147-15.009-11.496-15.009-21.325c0-12.531, 10.154-22.685, 22.685-22.685c 3.574,0, 6.942,0.85, 9.948,2.322
		c 119.056,45.474, 203.634,160.713, 203.634,295.743C 811.822,486.448, 734.15,597.661, 622.908,646.738z" data-tags="davicon-volume-3" />
<glyph unicode="&#xe06b;" d="M 426.718,634.431C 404.565,617.524, 199.26,465.948, 199.26,465.948l-90.435,0 c-19.979,0-45.217-16.195-45.217-36.174L 63.608,276.035 
		c0-19.979, 25.239-36.174, 45.217-36.174l 90.435,0 c0,0, 197.072-145.976, 221.504-164.074c 24.435-18.098, 58.844-0.6, 58.844,19.378L 479.608,610.643 
		C 479.608,630.622, 448.86,651.339, 426.718,634.431zM 643.534,357.053c0,55.089-32.882,102.441-80.049,123.679c-3.335,1.921-7.184,3.039-11.308,3.039
		c-12.527,0-22.685-10.158-22.685-22.681c0-9.662, 6.052-17.888, 14.556-21.158C 575.983,425.976, 598.317,394.132, 598.317,357.053
		c0-38.612-24.211-71.545-58.273-84.513c-8.852-3.089-15.218-11.492-15.218-21.397c0-12.531, 10.154-22.685, 22.685-22.685
		c 3.635,0, 7.058,0.875, 10.103,2.395C 607.917,250.699, 643.534,299.7, 643.534,357.053zM 598.367,564.258c-3.205,1.733-6.869,2.717-10.769,2.717c-12.527,0-22.685-10.158-22.685-22.681
		c0-9.836, 6.265-18.177, 15.012-21.328C 643.961,495.118, 688.751,431.333, 688.751,357.053c0-77.311-48.524-143.263-116.769-169.138
		c-9.253-2.861-15.971-11.482-15.971-21.668c0-12.531, 10.154-22.685, 22.685-22.685c 3.545,0, 6.891,0.836, 9.879,2.29
		c 85.005,32.499, 145.394,114.776, 145.394,211.201C 733.969,449.738, 678.174,529.353, 598.367,564.258z" data-tags="davicon-volume-2" />
<glyph unicode="&#xe06c;" d="M 435.762,634.431C 413.609,617.524, 208.304,465.948, 208.304,465.948l-90.435,0 c-19.979,0-45.217-16.195-45.217-36.174L 72.652,276.035 
		c0-19.979, 25.239-36.174, 45.217-36.174l 90.435,0 c0,0, 197.068-145.976, 221.504-164.074s 58.844-0.6, 58.844,19.378L 488.652,610.643 
		C 488.652,630.622, 457.904,651.339, 435.762,634.431zM 572.528,480.736c-3.335,1.921-7.184,3.039-11.308,3.039c-12.527,0-22.685-10.158-22.685-22.681
		c0-9.662, 6.052-17.888, 14.556-21.158c 31.931-13.96, 54.264-45.803, 54.264-82.882c0-38.612-24.211-71.545-58.273-84.513
		c-8.852-3.089-15.218-11.492-15.218-21.397c0-12.531, 10.154-22.685, 22.685-22.685c 3.635,0, 7.058,0.875, 10.103,2.395
		C 616.961,250.699, 652.577,299.7, 652.577,357.053C 652.577,412.143, 619.695,459.498, 572.528,480.736z" data-tags="davicon-volume-1" />
<glyph unicode="&#xe06d;" d="M 110.33,546.815A143.411,143.411 180 1 1 397.153,546.815A143.411,143.411 180 1 1 110.33,546.815zM 708.249,128.764c 8.128,13.858, 6.287,31.952-5.607,43.843l-7.817,7.817c 8.928,11.261, 8.204,27.666-2.207,38.069
		l-243.729,285.173c-5.502,6.66-15.012,8.052-18.503-2.51c-8.139-28.013-23.22-54.435-45.311-76.522l-4.58-4.576
		c-22.084-22.084-48.506-37.169-76.519-45.311c-10.563-3.487-9.163-12.997-2.51-18.499l 285.173-243.733c 11.199-11.203, 29.362-11.203, 40.562,0
		l 3.824,3.82l 7.672-7.672c 9.847-9.843, 23.944-12.806, 36.373-8.935c 5.39-10.418, 6.743-21.712, 3.075-30.578
		c-6.953-16.777-32.231-26.4-69.36-26.4c-47.952,0-70.923,15.605-97.528,33.682c-20.037,13.619-42.75,29.048-76.53,37.393
		c-90.088,22.243-155.555-40.829-180.027-81.612c-6.168-10.281-2.832-23.611, 7.445-29.775c 3.494-2.098, 7.347-3.096, 11.145-3.096
		c 7.376,0, 14.564,3.758, 18.633,10.541c 18.34,30.571, 66.842,77.998, 132.397,61.8c 26.226-6.475, 43.868-18.463, 62.545-31.153
		c 28.411-19.302, 60.62-41.184, 121.921-41.184c 76.070,0, 101.233,33.331, 109.462,53.197C 728.094,76.322, 723.927,105.12, 708.249,128.764z" data-tags="davicon-mic" />
<glyph unicode="&#xe06e;" d="M 625.809,578.087L 200.765,578.087 c-19.979,0-36.174-16.195-36.174-36.174l0-18.087 c0-19.979, 16.195-36.174, 36.174-36.174L 625.809,487.652 c 19.979,0, 36.174,16.195, 36.174,36.174l0,18.087 
		C 661.983,561.892, 645.788,578.087, 625.809,578.087zM 625.809,397.217L 200.765,397.217 c-19.979,0-36.174-16.195-36.174-36.174l0-18.087 c0-19.979, 16.195-36.174, 36.174-36.174L 625.809,306.783 c 19.979,0, 36.174,16.195, 36.174,36.174l0,18.087 
		C 661.983,381.022, 645.788,397.217, 625.809,397.217zM 625.809,216.348L 200.765,216.348 c-19.979,0-36.174-16.195-36.174-36.174l0-18.087 c0-19.979, 16.195-36.174, 36.174-36.174L 625.809,125.913 c 19.979,0, 36.174,16.195, 36.174,36.174l0,18.087 
		C 661.983,200.153, 645.788,216.348, 625.809,216.348z" data-tags="davicon-list" />
<glyph unicode="&#xe06f;" d="M 651.13,578.087L 316.522,578.087 c-19.979,0-36.174-16.195-36.174-36.174l0-18.087 c0-19.979, 16.195-36.174, 36.174-36.174L 651.13,487.652 c 19.979,0, 36.174,16.195, 36.174,36.174l0,18.087 
		C 687.304,561.892, 671.109,578.087, 651.13,578.087zM 651.13,397.217L 316.522,397.217 c-19.979,0-36.174-16.195-36.174-36.174l0-18.087 c0-19.979, 16.195-36.174, 36.174-36.174L 651.13,306.783 c 19.979,0, 36.174,16.195, 36.174,36.174l0,18.087 
		C 687.304,381.022, 671.109,397.217, 651.13,397.217zM 651.13,216.348L 316.522,216.348 c-19.979,0-36.174-16.195-36.174-36.174l0-18.087 c0-19.979, 16.195-36.174, 36.174-36.174L 651.13,125.913 c 19.979,0, 36.174,16.195, 36.174,36.174l0,18.087 
		C 687.304,200.153, 671.109,216.348, 651.13,216.348zM 198.957,578.087l-18.087,0 c-19.979,0-36.174-16.195-36.174-36.174l0-18.087 c0-19.979, 16.195-36.174, 36.174-36.174l 18.087,0 c 19.979,0, 36.174,16.195, 36.174,36.174l0,18.087 
		C 235.13,561.892, 218.935,578.087, 198.957,578.087zM 198.957,397.217l-18.087,0 c-19.979,0-36.174-16.195-36.174-36.174l0-18.087 c0-19.979, 16.195-36.174, 36.174-36.174l 18.087,0 c 19.979,0, 36.174,16.195, 36.174,36.174l0,18.087 
		C 235.13,381.022, 218.935,397.217, 198.957,397.217zM 198.957,216.348l-18.087,0 c-19.979,0-36.174-16.195-36.174-36.174l0-18.087 c0-19.979, 16.195-36.174, 36.174-36.174l 18.087,0 c 19.979,0, 36.174,16.195, 36.174,36.174l0,18.087 
		C 235.13,200.153, 218.935,216.348, 198.957,216.348z" data-tags="davicon-list-bulleted" />
<glyph unicode="&#xe070;" d="M 202.574,487.652l 244.174,0 c 19.979,0, 36.174,16.195, 36.174,36.174l0,18.087 c0,19.979-16.195,36.174-36.174,36.174L 202.574,578.087 c-19.979,0-36.174-16.195-36.174-36.174l0-18.087 
		C 166.4,503.847, 182.595,487.652, 202.574,487.652zM 627.617,397.217L 202.574,397.217 c-19.979,0-36.174-16.195-36.174-36.174l0-18.087 c0-19.979, 16.195-36.174, 36.174-36.174l 425.043,0 c 19.979,0, 36.174,16.195, 36.174,36.174l0,18.087 
		C 663.791,381.022, 647.596,397.217, 627.617,397.217zM 537.183,216.348L 202.574,216.348 c-19.979,0-36.174-16.195-36.174-36.174l0-18.087 c0-19.979, 16.195-36.174, 36.174-36.174l 334.609,0 c 19.979,0, 36.174,16.195, 36.174,36.174l0,18.087 
		C 573.357,200.153, 557.161,216.348, 537.183,216.348z" data-tags="davicon-align-left" />
<glyph unicode="&#xe071;" d="M 627.617,578.087L 383.443,578.087 c-19.979,0-36.174-16.195-36.174-36.174l0-18.087 c0-19.979, 16.195-36.174, 36.174-36.174l 244.174,0 c 19.979,0, 36.174,16.195, 36.174,36.174l0,18.087 
		C 663.791,561.892, 647.596,578.087, 627.617,578.087zM 627.617,397.217L 202.574,397.217 c-19.979,0-36.174-16.195-36.174-36.174l0-18.087 c0-19.979, 16.195-36.174, 36.174-36.174l 425.043,0 c 19.979,0, 36.174,16.195, 36.174,36.174l0,18.087 
		C 663.791,381.022, 647.596,397.217, 627.617,397.217zM 627.617,216.348L 293.009,216.348 c-19.979,0-36.174-16.195-36.174-36.174l0-18.087 c0-19.979, 16.195-36.174, 36.174-36.174l 334.609,0 c 19.979,0, 36.174,16.195, 36.174,36.174l0,18.087 
		C 663.791,200.153, 647.596,216.348, 627.617,216.348z" data-tags="davicon-align-right" />
<glyph unicode="&#xe072;" d="M 293.009,487.652l 244.174,0 c 19.979,0, 36.174,16.195, 36.174,36.174l0,18.087 c0,19.979-16.195,36.174-36.174,36.174L 293.009,578.087 c-19.979,0-36.174-16.195-36.174-36.174l0-18.087 
		C 256.835,503.847, 273.030,487.652, 293.009,487.652zM 627.617,397.217L 202.574,397.217 c-19.979,0-36.174-16.195-36.174-36.174l0-18.087 c0-19.979, 16.195-36.174, 36.174-36.174l 425.043,0 c 19.979,0, 36.174,16.195, 36.174,36.174l0,18.087 
		C 663.791,381.022, 647.596,397.217, 627.617,397.217zM 582.4,216.348L 247.791,216.348 c-19.979,0-36.174-16.195-36.174-36.174l0-18.087 c0-19.979, 16.195-36.174, 36.174-36.174L 582.4,125.913 c 19.979,0, 36.174,16.195, 36.174,36.174l0,18.087 
		C 618.574,200.153, 602.379,216.348, 582.4,216.348z" data-tags="davicon-align-centre" />
</font>
</defs>
</svg>
